<svg width="223" height="44" viewBox="0 0 223 44" fill="none" xmlns="http://www.w3.org/2000/svg">
<path d="M65.4261 20H64.1932C64.1203 19.6454 63.9927 19.3338 63.8104 19.0653C63.6314 18.7969 63.4126 18.5715 63.1541 18.3892C62.8989 18.2036 62.6155 18.0644 62.304 17.9716C61.9924 17.8788 61.6676 17.8324 61.3295 17.8324C60.7131 17.8324 60.1546 17.9882 59.6541 18.2997C59.157 18.6113 58.7609 19.0703 58.4659 19.6768C58.1742 20.2834 58.0284 21.0275 58.0284 21.9091C58.0284 22.7907 58.1742 23.5348 58.4659 24.1413C58.7609 24.7479 59.157 25.2069 59.6541 25.5185C60.1546 25.83 60.7131 25.9858 61.3295 25.9858C61.6676 25.9858 61.9924 25.9394 62.304 25.8466C62.6155 25.7538 62.8989 25.6162 63.1541 25.4339C63.4126 25.2483 63.6314 25.0213 63.8104 24.7528C63.9927 24.4811 64.1203 24.1695 64.1932 23.8182H65.4261C65.3333 24.3385 65.1643 24.8042 64.919 25.2152C64.6738 25.6262 64.3688 25.9759 64.0043 26.2642C63.6397 26.5492 63.2304 26.7663 62.7763 26.9155C62.3255 27.0646 61.8433 27.1392 61.3295 27.1392C60.4612 27.1392 59.6889 26.9271 59.0128 26.5028C58.3366 26.0786 57.8047 25.4754 57.4169 24.6932C57.0291 23.911 56.8352 22.983 56.8352 21.9091C56.8352 20.8352 57.0291 19.9072 57.4169 19.125C57.8047 18.3428 58.3366 17.7396 59.0128 17.3153C59.6889 16.8911 60.4612 16.679 61.3295 16.679C61.8433 16.679 62.3255 16.7536 62.7763 16.9027C63.2304 17.0518 63.6397 17.2706 64.0043 17.5589C64.3688 17.844 64.6738 18.192 64.919 18.603C65.1643 19.0107 65.3333 19.4763 65.4261 20ZM69.5066 27.179C69.0227 27.179 68.5835 27.0878 68.1891 26.9055C67.7947 26.7199 67.4815 26.4531 67.2495 26.1051C67.0175 25.7538 66.9015 25.3295 66.9015 24.8324C66.9015 24.3949 66.9876 24.0402 67.16 23.7685C67.3323 23.4934 67.5627 23.2779 67.851 23.1222C68.1394 22.9664 68.4576 22.8504 68.8056 22.7741C69.1569 22.6946 69.5099 22.6316 69.8645 22.5852C70.3285 22.5256 70.7047 22.4808 70.9931 22.451C71.2847 22.4179 71.4969 22.3632 71.6294 22.2869C71.7653 22.2107 71.8333 22.0781 71.8333 21.8892V21.8494C71.8333 21.3589 71.699 20.9777 71.4306 20.706C71.1654 20.4342 70.7627 20.2983 70.2225 20.2983C69.6623 20.2983 69.2232 20.4209 68.905 20.6662C68.5868 20.9115 68.3631 21.1733 68.2338 21.4517L67.1202 21.054C67.3191 20.59 67.5842 20.2287 67.9157 19.9702C68.2504 19.7083 68.615 19.526 69.0094 19.4233C69.4071 19.3172 69.7982 19.2642 70.1827 19.2642C70.428 19.2642 70.7097 19.294 71.0279 19.3537C71.3494 19.41 71.6593 19.5277 71.9576 19.7067C72.2592 19.8857 72.5094 20.1558 72.7083 20.517C72.9071 20.8783 73.0066 21.3622 73.0066 21.9688V27H71.8333V25.9659H71.7736C71.6941 26.1316 71.5615 26.3089 71.3759 26.4979C71.1903 26.6868 70.9434 26.8475 70.6351 26.9801C70.3269 27.1127 69.9507 27.179 69.5066 27.179ZM69.6855 26.125C70.1496 26.125 70.5407 26.0339 70.8588 25.8516C71.1803 25.6693 71.4223 25.4339 71.5847 25.1456C71.7504 24.8572 71.8333 24.554 71.8333 24.2358V23.1619C71.7836 23.2216 71.6742 23.2763 71.5051 23.326C71.3394 23.3724 71.1472 23.4138 70.9284 23.4503C70.713 23.4834 70.5025 23.5133 70.2971 23.5398C70.0949 23.563 69.9308 23.5829 69.8049 23.5994C69.4999 23.6392 69.2149 23.7038 68.9498 23.7933C68.6879 23.8795 68.4758 24.0104 68.3134 24.1861C68.1543 24.3584 68.0748 24.5937 68.0748 24.892C68.0748 25.2997 68.2256 25.608 68.5272 25.8168C68.8321 26.0223 69.2182 26.125 69.6855 26.125ZM78.4691 19.3636V20.358H74.5117V19.3636H78.4691ZM75.6651 17.5341H76.8384V24.8125C76.8384 25.1439 76.8865 25.3925 76.9826 25.5582C77.082 25.7206 77.208 25.83 77.3604 25.8864C77.5162 25.9394 77.6803 25.9659 77.8526 25.9659C77.9819 25.9659 78.088 25.9593 78.1708 25.946C78.2537 25.9295 78.32 25.9162 78.3697 25.9062L78.6083 26.9602C78.5288 26.9901 78.4177 27.0199 78.2752 27.0497C78.1327 27.0829 77.9521 27.0994 77.7333 27.0994C77.4019 27.0994 77.0771 27.0282 76.7589 26.8857C76.444 26.7431 76.1822 26.526 75.9734 26.2344C75.7679 25.9427 75.6651 25.5748 75.6651 25.1307V17.5341ZM83.3537 27.1591C82.6179 27.1591 81.9832 26.9967 81.4496 26.6719C80.9193 26.3438 80.5099 25.8864 80.2216 25.2997C79.9366 24.7098 79.794 24.0237 79.794 23.2415C79.794 22.4593 79.9366 21.7699 80.2216 21.1733C80.5099 20.5734 80.911 20.1061 81.4247 19.7713C81.9418 19.4332 82.545 19.2642 83.2344 19.2642C83.6321 19.2642 84.0249 19.3305 84.4126 19.4631C84.8004 19.5956 85.1534 19.8111 85.4716 20.1094C85.7898 20.4044 86.0433 20.7955 86.2322 21.2827C86.4212 21.7699 86.5156 22.3698 86.5156 23.0824V23.5795H80.6293V22.5653H85.3224C85.3224 22.1345 85.2363 21.75 85.0639 21.4119C84.8949 21.0739 84.6529 20.8071 84.3381 20.6115C84.0265 20.416 83.6586 20.3182 83.2344 20.3182C82.767 20.3182 82.3627 20.4342 82.0213 20.6662C81.6832 20.8949 81.4231 21.1932 81.2408 21.5611C81.0585 21.929 80.9673 22.3234 80.9673 22.7443V23.4205C80.9673 23.9972 81.0668 24.486 81.2656 24.8871C81.4678 25.2848 81.7479 25.5881 82.1058 25.7969C82.4638 26.0024 82.8797 26.1051 83.3537 26.1051C83.6619 26.1051 83.9403 26.062 84.1889 25.9759C84.4408 25.8864 84.6579 25.7538 84.8402 25.5781C85.0225 25.3991 85.1634 25.1771 85.2628 24.9119L86.3963 25.2301C86.277 25.6146 86.0765 25.9527 85.7947 26.2443C85.513 26.5327 85.165 26.758 84.7507 26.9205C84.3364 27.0795 83.8707 27.1591 83.3537 27.1591ZM91.3828 30.0227C90.8161 30.0227 90.3288 29.9498 89.9212 29.804C89.5135 29.6615 89.1738 29.4725 88.902 29.2372C88.6335 29.0052 88.4197 28.7566 88.2607 28.4915L89.1953 27.8352C89.3014 27.9744 89.4356 28.1335 89.598 28.3125C89.7604 28.4948 89.9825 28.6522 90.2642 28.7848C90.5492 28.9207 90.9221 28.9886 91.3828 28.9886C91.9993 28.9886 92.508 28.8395 92.9091 28.5412C93.3101 28.2429 93.5107 27.7756 93.5107 27.1392V25.5881H93.4112C93.325 25.7273 93.2024 25.8996 93.0433 26.1051C92.8875 26.3073 92.6622 26.4879 92.3672 26.647C92.0755 26.8028 91.6811 26.8807 91.1839 26.8807C90.5675 26.8807 90.014 26.7348 89.5234 26.4432C89.0362 26.1515 88.6501 25.7273 88.3651 25.1705C88.0833 24.6136 87.9425 23.9375 87.9425 23.142C87.9425 22.3598 88.08 21.6787 88.3551 21.0987C88.6302 20.5154 89.013 20.0646 89.5036 19.7464C89.9941 19.425 90.5608 19.2642 91.2038 19.2642C91.701 19.2642 92.0954 19.3471 92.3871 19.5128C92.6821 19.6752 92.9074 19.8608 93.0632 20.0696C93.2223 20.2751 93.3449 20.4441 93.4311 20.5767H93.5504V19.3636H94.6839V27.2188C94.6839 27.875 94.5348 28.4086 94.2365 28.8196C93.9415 29.2339 93.5438 29.5372 93.0433 29.7294C92.5462 29.925 91.9927 30.0227 91.3828 30.0227ZM91.343 25.8267C91.8137 25.8267 92.2114 25.719 92.5362 25.5036C92.861 25.2881 93.108 24.9782 93.277 24.5739C93.446 24.1695 93.5305 23.6856 93.5305 23.1222C93.5305 22.572 93.4477 22.0864 93.282 21.6655C93.1162 21.2446 92.871 20.9148 92.5462 20.6761C92.2214 20.4375 91.8203 20.3182 91.343 20.3182C90.8459 20.3182 90.4316 20.4441 90.1001 20.696C89.772 20.9479 89.5251 21.286 89.3594 21.7102C89.197 22.1345 89.1158 22.6051 89.1158 23.1222C89.1158 23.6525 89.1986 24.1214 89.3643 24.5291C89.5334 24.9335 89.782 25.2517 90.1101 25.4837C90.4415 25.7124 90.8525 25.8267 91.343 25.8267ZM99.9339 27.1591C99.2446 27.1591 98.6397 26.995 98.1193 26.6669C97.6023 26.3388 97.1979 25.8797 96.9062 25.2898C96.6179 24.6998 96.4737 24.0104 96.4737 23.2216C96.4737 22.4261 96.6179 21.7318 96.9062 21.1385C97.1979 20.5452 97.6023 20.0845 98.1193 19.7564C98.6397 19.4283 99.2446 19.2642 99.9339 19.2642C100.623 19.2642 101.227 19.4283 101.744 19.7564C102.264 20.0845 102.668 20.5452 102.957 21.1385C103.248 21.7318 103.394 22.4261 103.394 23.2216C103.394 24.0104 103.248 24.6998 102.957 25.2898C102.668 25.8797 102.264 26.3388 101.744 26.6669C101.227 26.995 100.623 27.1591 99.9339 27.1591ZM99.9339 26.1051C100.458 26.1051 100.888 25.9709 101.227 25.7024C101.565 25.4339 101.815 25.081 101.977 24.6435C102.14 24.206 102.221 23.732 102.221 23.2216C102.221 22.7112 102.14 22.2356 101.977 21.7947C101.815 21.3539 101.565 20.9976 101.227 20.7259C100.888 20.4541 100.458 20.3182 99.9339 20.3182C99.4103 20.3182 98.9794 20.4541 98.6413 20.7259C98.3033 20.9976 98.053 21.3539 97.8906 21.7947C97.7282 22.2356 97.647 22.7112 97.647 23.2216C97.647 23.732 97.7282 24.206 97.8906 24.6435C98.053 25.081 98.3033 25.4339 98.6413 25.7024C98.9794 25.9709 99.4103 26.1051 99.9339 26.1051ZM105.185 27V19.3636H106.319V20.517H106.398C106.537 20.1392 106.789 19.8326 107.154 19.5973C107.519 19.362 107.93 19.2443 108.387 19.2443C108.473 19.2443 108.581 19.246 108.71 19.2493C108.839 19.2526 108.937 19.2576 109.003 19.2642V20.4574C108.964 20.4474 108.872 20.4325 108.73 20.4126C108.591 20.3894 108.443 20.3778 108.287 20.3778C107.916 20.3778 107.585 20.4557 107.293 20.6115C107.005 20.764 106.776 20.9761 106.607 21.2479C106.441 21.5163 106.358 21.8229 106.358 22.1676V27H105.185ZM110.394 27V19.3636H111.567V27H110.394ZM110.991 18.0909C110.762 18.0909 110.565 18.013 110.399 17.8572C110.237 17.7015 110.156 17.5142 110.156 17.2955C110.156 17.0767 110.237 16.8894 110.399 16.7337C110.565 16.5779 110.762 16.5 110.991 16.5C111.219 16.5 111.415 16.5779 111.577 16.7337C111.743 16.8894 111.826 17.0767 111.826 17.2955C111.826 17.5142 111.743 17.7015 111.577 17.8572C111.415 18.013 111.219 18.0909 110.991 18.0909ZM116.918 27.1591C116.182 27.1591 115.548 26.9967 115.014 26.6719C114.484 26.3438 114.074 25.8864 113.786 25.2997C113.501 24.7098 113.358 24.0237 113.358 23.2415C113.358 22.4593 113.501 21.7699 113.786 21.1733C114.074 20.5734 114.475 20.1061 114.989 19.7713C115.506 19.4332 116.109 19.2642 116.799 19.2642C117.197 19.2642 117.589 19.3305 117.977 19.4631C118.365 19.5956 118.718 19.8111 119.036 20.1094C119.354 20.4044 119.608 20.7955 119.797 21.2827C119.986 21.7699 120.08 22.3698 120.08 23.0824V23.5795H114.194V22.5653H118.887C118.887 22.1345 118.801 21.75 118.628 21.4119C118.459 21.0739 118.217 20.8071 117.903 20.6115C117.591 20.416 117.223 20.3182 116.799 20.3182C116.331 20.3182 115.927 20.4342 115.586 20.6662C115.248 20.8949 114.988 21.1932 114.805 21.5611C114.623 21.929 114.532 22.3234 114.532 22.7443V23.4205C114.532 23.9972 114.631 24.486 114.83 24.8871C115.032 25.2848 115.312 25.5881 115.67 25.7969C116.028 26.0024 116.444 26.1051 116.918 26.1051C117.226 26.1051 117.505 26.062 117.753 25.9759C118.005 25.8864 118.222 25.7538 118.405 25.5781C118.587 25.3991 118.728 25.1771 118.827 24.9119L119.961 25.2301C119.841 25.6146 119.641 25.9527 119.359 26.2443C119.077 26.5327 118.729 26.758 118.315 26.9205C117.901 27.0795 117.435 27.1591 116.918 27.1591ZM127.274 21.0739L126.22 21.3722C126.154 21.1965 126.056 21.0258 125.927 20.8601C125.801 20.6911 125.628 20.5518 125.41 20.4425C125.191 20.3331 124.911 20.2784 124.569 20.2784C124.102 20.2784 123.713 20.3861 123.401 20.6016C123.093 20.8137 122.939 21.0838 122.939 21.4119C122.939 21.7036 123.045 21.9339 123.257 22.103C123.469 22.272 123.8 22.4129 124.251 22.5256L125.385 22.804C126.068 22.9697 126.576 23.2232 126.911 23.5646C127.246 23.9027 127.413 24.3385 127.413 24.8722C127.413 25.3097 127.287 25.7008 127.035 26.0455C126.787 26.3902 126.439 26.6619 125.991 26.8608C125.544 27.0597 125.023 27.1591 124.43 27.1591C123.651 27.1591 123.007 26.9901 122.496 26.652C121.986 26.3139 121.663 25.8201 121.527 25.1705L122.64 24.892C122.747 25.303 122.947 25.6113 123.242 25.8168C123.54 26.0223 123.93 26.125 124.41 26.125C124.957 26.125 125.391 26.009 125.713 25.777C126.038 25.5417 126.2 25.2599 126.2 24.9318C126.2 24.6667 126.107 24.4446 125.922 24.2656C125.736 24.0833 125.451 23.9474 125.067 23.858L123.794 23.5597C123.095 23.3939 122.581 23.1371 122.253 22.7891C121.928 22.4377 121.765 21.9986 121.765 21.4716C121.765 21.0407 121.886 20.6596 122.128 20.3281C122.374 19.9967 122.707 19.7365 123.128 19.5476C123.552 19.3587 124.032 19.2642 124.569 19.2642C125.325 19.2642 125.918 19.4299 126.349 19.7614C126.783 20.0928 127.092 20.5303 127.274 21.0739Z" fill="white"/>
<path fill-rule="evenodd" clip-rule="evenodd" d="M25.5 12L28 15H36C37.1046 15 38 15.8954 38 17V29C38 30.1046 37.1046 31 36 31H20C18.8954 31 18 30.1046 18 29V14C18 12.8954 18.8954 12 20 12H25.5ZM27.0632 17L24.563 14H20V29H36V17H27.0632Z" fill="white"/>
</svg>
