<svg width="223" height="44" viewBox="0 0 223 44" fill="none" xmlns="http://www.w3.org/2000/svg">
<path d="M65.4261 20H64.1932C64.1203 19.6454 63.9927 19.3338 63.8104 19.0653C63.6314 18.7969 63.4126 18.5715 63.1541 18.3892C62.8989 18.2036 62.6155 18.0644 62.304 17.9716C61.9924 17.8788 61.6676 17.8324 61.3295 17.8324C60.7131 17.8324 60.1546 17.9882 59.6541 18.2997C59.157 18.6113 58.7609 19.0703 58.4659 19.6768C58.1742 20.2834 58.0284 21.0275 58.0284 21.9091C58.0284 22.7907 58.1742 23.5348 58.4659 24.1413C58.7609 24.7479 59.157 25.2069 59.6541 25.5185C60.1546 25.83 60.7131 25.9858 61.3295 25.9858C61.6676 25.9858 61.9924 25.9394 62.304 25.8466C62.6155 25.7538 62.8989 25.6162 63.1541 25.4339C63.4126 25.2483 63.6314 25.0213 63.8104 24.7528C63.9927 24.4811 64.1203 24.1695 64.1932 23.8182H65.4261C65.3333 24.3385 65.1643 24.8042 64.919 25.2152C64.6738 25.6262 64.3688 25.9759 64.0043 26.2642C63.6397 26.5492 63.2304 26.7663 62.7763 26.9155C62.3255 27.0646 61.8433 27.1392 61.3295 27.1392C60.4612 27.1392 59.6889 26.9271 59.0128 26.5028C58.3366 26.0786 57.8047 25.4754 57.4169 24.6932C57.0291 23.911 56.8352 22.983 56.8352 21.9091C56.8352 20.8352 57.0291 19.9072 57.4169 19.125C57.8047 18.3428 58.3366 17.7396 59.0128 17.3153C59.6889 16.8911 60.4612 16.679 61.3295 16.679C61.8433 16.679 62.3255 16.7536 62.7763 16.9027C63.2304 17.0518 63.6397 17.2706 64.0043 17.5589C64.3688 17.844 64.6738 18.192 64.919 18.603C65.1643 19.0107 65.3333 19.4763 65.4261 20ZM70.3617 27.1591C69.6723 27.1591 69.0674 26.995 68.5471 26.6669C68.03 26.3388 67.6257 25.8797 67.334 25.2898C67.0456 24.6998 66.9015 24.0104 66.9015 23.2216C66.9015 22.4261 67.0456 21.7318 67.334 21.1385C67.6257 20.5452 68.03 20.0845 68.5471 19.7564C69.0674 19.4283 69.6723 19.2642 70.3617 19.2642C71.0511 19.2642 71.6543 19.4283 72.1713 19.7564C72.6917 20.0845 73.0961 20.5452 73.3844 21.1385C73.6761 21.7318 73.8219 22.4261 73.8219 23.2216C73.8219 24.0104 73.6761 24.6998 73.3844 25.2898C73.0961 25.8797 72.6917 26.3388 72.1713 26.6669C71.6543 26.995 71.0511 27.1591 70.3617 27.1591ZM70.3617 26.1051C70.8854 26.1051 71.3162 25.9709 71.6543 25.7024C71.9924 25.4339 72.2426 25.081 72.405 24.6435C72.5674 24.206 72.6486 23.732 72.6486 23.2216C72.6486 22.7112 72.5674 22.2356 72.405 21.7947C72.2426 21.3539 71.9924 20.9976 71.6543 20.7259C71.3162 20.4541 70.8854 20.3182 70.3617 20.3182C69.838 20.3182 69.4071 20.4541 69.0691 20.7259C68.731 20.9976 68.4808 21.3539 68.3184 21.7947C68.156 22.2356 68.0748 22.7112 68.0748 23.2216C68.0748 23.732 68.156 24.206 68.3184 24.6435C68.4808 25.081 68.731 25.4339 69.0691 25.7024C69.4071 25.9709 69.838 26.1051 70.3617 26.1051ZM80.4254 23.8778V19.3636H81.5987V27H80.4254V25.7074H80.3459C80.1669 26.0952 79.8885 26.425 79.5107 26.6967C79.1328 26.9652 78.6555 27.0994 78.0788 27.0994C77.6016 27.0994 77.1773 26.995 76.8061 26.7862C76.4349 26.5741 76.1432 26.2559 75.9311 25.8317C75.719 25.4041 75.6129 24.8655 75.6129 24.2159V19.3636H76.7862V24.1364C76.7862 24.6932 76.942 25.1373 77.2536 25.4688C77.5684 25.8002 77.9695 25.9659 78.4567 25.9659C78.7483 25.9659 79.045 25.8913 79.3466 25.7422C79.6515 25.593 79.9067 25.3643 80.1122 25.0561C80.321 24.7479 80.4254 24.3551 80.4254 23.8778ZM83.7477 29.8636V19.3636H84.8812V20.5767H85.0204C85.1066 20.4441 85.2259 20.2751 85.3784 20.0696C85.5342 19.8608 85.7562 19.6752 86.0446 19.5128C86.3362 19.3471 86.7306 19.2642 87.2278 19.2642C87.8708 19.2642 88.4376 19.425 88.9281 19.7464C89.4186 20.0679 89.8014 20.5237 90.0765 21.1136C90.3516 21.7036 90.4892 22.3996 90.4892 23.2017C90.4892 24.0104 90.3516 24.7114 90.0765 25.3047C89.8014 25.8946 89.4203 26.352 88.9331 26.6768C88.4458 26.9983 87.8841 27.1591 87.2477 27.1591C86.7572 27.1591 86.3644 27.0779 86.0694 26.9155C85.7744 26.7498 85.5474 26.5625 85.3883 26.3537C85.2292 26.1416 85.1066 25.9659 85.0204 25.8267H84.921V29.8636H83.7477ZM84.9011 23.1818C84.9011 23.7585 84.9856 24.2673 85.1547 24.7081C85.3237 25.1456 85.5706 25.4886 85.8954 25.7372C86.2202 25.9825 86.618 26.1051 87.0886 26.1051C87.5791 26.1051 87.9885 25.9759 88.3166 25.7173C88.648 25.4555 88.8966 25.1042 89.0623 24.6634C89.2314 24.2192 89.3159 23.7254 89.3159 23.1818C89.3159 22.6449 89.233 22.161 89.0673 21.7301C88.9049 21.2959 88.658 20.9529 88.3265 20.701C87.9984 20.4458 87.5858 20.3182 87.0886 20.3182C86.6113 20.3182 86.2103 20.4392 85.8855 20.6811C85.5607 20.9197 85.3154 21.2545 85.1497 21.6854C84.984 22.1129 84.9011 22.6117 84.9011 23.1818ZM95.3812 27.1591C94.6918 27.1591 94.0869 26.995 93.5666 26.6669C93.0495 26.3388 92.6452 25.8797 92.3535 25.2898C92.0652 24.6998 91.921 24.0104 91.921 23.2216C91.921 22.4261 92.0652 21.7318 92.3535 21.1385C92.6452 20.5452 93.0495 20.0845 93.5666 19.7564C94.0869 19.4283 94.6918 19.2642 95.3812 19.2642C96.0706 19.2642 96.6738 19.4283 97.1909 19.7564C97.7112 20.0845 98.1156 20.5452 98.4039 21.1385C98.6956 21.7318 98.8414 22.4261 98.8414 23.2216C98.8414 24.0104 98.6956 24.6998 98.4039 25.2898C98.1156 25.8797 97.7112 26.3388 97.1909 26.6669C96.6738 26.995 96.0706 27.1591 95.3812 27.1591ZM95.3812 26.1051C95.9049 26.1051 96.3358 25.9709 96.6738 25.7024C97.0119 25.4339 97.2621 25.081 97.4245 24.6435C97.5869 24.206 97.6681 23.732 97.6681 23.2216C97.6681 22.7112 97.5869 22.2356 97.4245 21.7947C97.2621 21.3539 97.0119 20.9976 96.6738 20.7259C96.3358 20.4541 95.9049 20.3182 95.3812 20.3182C94.8575 20.3182 94.4267 20.4541 94.0886 20.7259C93.7505 20.9976 93.5003 21.3539 93.3379 21.7947C93.1755 22.2356 93.0943 22.7112 93.0943 23.2216C93.0943 23.732 93.1755 24.206 93.3379 24.6435C93.5003 25.081 93.7505 25.4339 94.0886 25.7024C94.4267 25.9709 94.8575 26.1051 95.3812 26.1051ZM101.806 22.4062V27H100.632V19.3636H101.766V20.5568H101.865C102.044 20.169 102.316 19.8575 102.681 19.6222C103.045 19.3835 103.516 19.2642 104.093 19.2642C104.61 19.2642 105.062 19.3703 105.45 19.5824C105.838 19.7912 106.139 20.1094 106.355 20.5369C106.57 20.9612 106.678 21.4981 106.678 22.1477V27H105.505V22.2273C105.505 21.6274 105.349 21.16 105.037 20.8253C104.726 20.4872 104.298 20.3182 103.755 20.3182C103.38 20.3182 103.045 20.3994 102.75 20.5618C102.459 20.7242 102.228 20.9612 102.059 21.2727C101.89 21.5843 101.806 21.9621 101.806 22.4062ZM114.231 21.0739L113.177 21.3722C113.111 21.1965 113.013 21.0258 112.884 20.8601C112.758 20.6911 112.585 20.5518 112.367 20.4425C112.148 20.3331 111.868 20.2784 111.526 20.2784C111.059 20.2784 110.67 20.3861 110.358 20.6016C110.05 20.8137 109.896 21.0838 109.896 21.4119C109.896 21.7036 110.002 21.9339 110.214 22.103C110.426 22.272 110.758 22.4129 111.208 22.5256L112.342 22.804C113.025 22.9697 113.533 23.2232 113.868 23.5646C114.203 23.9027 114.37 24.3385 114.37 24.8722C114.37 25.3097 114.244 25.7008 113.992 26.0455C113.744 26.3902 113.396 26.6619 112.948 26.8608C112.501 27.0597 111.981 27.1591 111.387 27.1591C110.608 27.1591 109.964 26.9901 109.453 26.652C108.943 26.3139 108.62 25.8201 108.484 25.1705L109.597 24.892C109.704 25.303 109.904 25.6113 110.199 25.8168C110.497 26.0223 110.887 26.125 111.367 26.125C111.914 26.125 112.348 26.009 112.67 25.777C112.995 25.5417 113.157 25.2599 113.157 24.9318C113.157 24.6667 113.064 24.4446 112.879 24.2656C112.693 24.0833 112.408 23.9474 112.024 23.858L110.751 23.5597C110.052 23.3939 109.538 23.1371 109.21 22.7891C108.885 22.4377 108.722 21.9986 108.722 21.4716C108.722 21.0407 108.843 20.6596 109.085 20.3281C109.331 19.9967 109.664 19.7365 110.085 19.5476C110.509 19.3587 110.99 19.2642 111.526 19.2642C112.282 19.2642 112.875 19.4299 113.306 19.7614C113.74 20.0928 114.049 20.5303 114.231 21.0739Z" fill="white"/>
<path fill-rule="evenodd" clip-rule="evenodd" d="M28.393 13.0803C28.6263 13.1794 28.8122 13.363 28.9126 13.5934L30.9554 18.2772L36.098 18.7482C36.6445 18.7982 37.0464 19.2762 36.9957 19.8158C36.9722 20.0654 36.8529 20.2968 36.6621 20.4623L32.782 23.828L33.9175 28.8029C34.0382 29.3316 33.702 29.8567 33.1666 29.9758C32.9189 30.031 32.6591 29.9904 32.4408 29.8623L28 27.2586L23.5592 29.8623C23.0873 30.139 22.4776 29.9856 22.1974 29.5196C22.0678 29.304 22.0266 29.0476 22.0825 28.8029L23.218 23.828L19.3379 20.4623C18.9256 20.1046 18.885 19.4847 19.2472 19.0776C19.4148 18.8892 19.6491 18.7713 19.9019 18.7482L25.0445 18.2772L27.0873 13.5934C27.3044 13.0956 27.889 12.8659 28.393 13.0803ZM29.5968 20.1236L28 16.4616L26.4031 20.1236L22.3816 20.4914L25.4162 23.1228L24.528 27.0114L28 24.9764L31.4709 27.0114L30.5838 23.1228L33.6173 20.4914L29.5968 20.1236Z" fill="white"/>
</svg>
