<svg width="223" height="44" viewBox="0 0 223 44" fill="none" xmlns="http://www.w3.org/2000/svg">
<path d="M65.4261 20H64.1932C64.1203 19.6454 63.9927 19.3338 63.8104 19.0653C63.6314 18.7969 63.4126 18.5715 63.1541 18.3892C62.8989 18.2036 62.6155 18.0644 62.304 17.9716C61.9924 17.8788 61.6676 17.8324 61.3295 17.8324C60.7131 17.8324 60.1546 17.9882 59.6541 18.2997C59.157 18.6113 58.7609 19.0703 58.4659 19.6768C58.1742 20.2834 58.0284 21.0275 58.0284 21.9091C58.0284 22.7907 58.1742 23.5348 58.4659 24.1413C58.7609 24.7479 59.157 25.2069 59.6541 25.5185C60.1546 25.83 60.7131 25.9858 61.3295 25.9858C61.6676 25.9858 61.9924 25.9394 62.304 25.8466C62.6155 25.7538 62.8989 25.6162 63.1541 25.4339C63.4126 25.2483 63.6314 25.0213 63.8104 24.7528C63.9927 24.4811 64.1203 24.1695 64.1932 23.8182H65.4261C65.3333 24.3385 65.1643 24.8042 64.919 25.2152C64.6738 25.6262 64.3688 25.9759 64.0043 26.2642C63.6397 26.5492 63.2304 26.7663 62.7763 26.9155C62.3255 27.0646 61.8433 27.1392 61.3295 27.1392C60.4612 27.1392 59.6889 26.9271 59.0128 26.5028C58.3366 26.0786 57.8047 25.4754 57.4169 24.6932C57.0291 23.911 56.8352 22.983 56.8352 21.9091C56.8352 20.8352 57.0291 19.9072 57.4169 19.125C57.8047 18.3428 58.3366 17.7396 59.0128 17.3153C59.6889 16.8911 60.4612 16.679 61.3295 16.679C61.8433 16.679 62.3255 16.7536 62.7763 16.9027C63.2304 17.0518 63.6397 17.2706 64.0043 17.5589C64.3688 17.844 64.6738 18.192 64.919 18.603C65.1643 19.0107 65.3333 19.4763 65.4261 20ZM72.0719 23.8778V19.3636H73.2452V27H72.0719V25.7074H71.9924C71.8134 26.0952 71.535 26.425 71.1571 26.6967C70.7793 26.9652 70.302 27.0994 69.7253 27.0994C69.248 27.0994 68.8238 26.995 68.4526 26.7862C68.0814 26.5741 67.7897 26.2559 67.5776 25.8317C67.3655 25.4041 67.2594 24.8655 67.2594 24.2159V19.3636H68.4327V24.1364C68.4327 24.6932 68.5885 25.1373 68.9 25.4688C69.2149 25.8002 69.6159 25.9659 70.1032 25.9659C70.3948 25.9659 70.6915 25.8913 70.9931 25.7422C71.298 25.593 71.5532 25.3643 71.7587 25.0561C71.9675 24.7479 72.0719 24.3551 72.0719 23.8778ZM80.8033 21.0739L79.7493 21.3722C79.683 21.1965 79.5852 21.0258 79.456 20.8601C79.33 20.6911 79.1577 20.5518 78.9389 20.4425C78.7202 20.3331 78.4401 20.2784 78.0987 20.2784C77.6314 20.2784 77.242 20.3861 76.9304 20.6016C76.6222 20.8137 76.468 21.0838 76.468 21.4119C76.468 21.7036 76.5741 21.9339 76.7862 22.103C76.9983 22.272 77.3298 22.4129 77.7805 22.5256L78.9141 22.804C79.5968 22.9697 80.1056 23.2232 80.4403 23.5646C80.7751 23.9027 80.9425 24.3385 80.9425 24.8722C80.9425 25.3097 80.8165 25.7008 80.5646 26.0455C80.3161 26.3902 79.968 26.6619 79.5206 26.8608C79.0732 27.0597 78.5528 27.1591 77.9595 27.1591C77.1806 27.1591 76.536 26.9901 76.0256 26.652C75.5152 26.3139 75.192 25.8201 75.0561 25.1705L76.1697 24.892C76.2758 25.303 76.4763 25.6113 76.7713 25.8168C77.0696 26.0223 77.459 26.125 77.9396 26.125C78.4865 26.125 78.9207 26.009 79.2422 25.777C79.567 25.5417 79.7294 25.2599 79.7294 24.9318C79.7294 24.6667 79.6366 24.4446 79.451 24.2656C79.2654 24.0833 78.9804 23.9474 78.5959 23.858L77.3232 23.5597C76.6238 23.3939 76.1101 23.1371 75.782 22.7891C75.4571 22.4377 75.2947 21.9986 75.2947 21.4716C75.2947 21.0407 75.4157 20.6596 75.6577 20.3281C75.9029 19.9967 76.236 19.7365 76.657 19.5476C77.0812 19.3587 77.5618 19.2642 78.0987 19.2642C78.8544 19.2642 79.4477 19.4299 79.8786 19.7614C80.3127 20.0928 80.621 20.5303 80.8033 21.0739ZM86.0297 19.3636V20.358H82.0723V19.3636H86.0297ZM83.2257 17.5341H84.399V24.8125C84.399 25.1439 84.447 25.3925 84.5431 25.5582C84.6426 25.7206 84.7685 25.83 84.921 25.8864C85.0768 25.9394 85.2408 25.9659 85.4132 25.9659C85.5424 25.9659 85.6485 25.9593 85.7314 25.946C85.8142 25.9295 85.8805 25.9162 85.9302 25.9062L86.1689 26.9602C86.0893 26.9901 85.9783 27.0199 85.8358 27.0497C85.6932 27.0829 85.5126 27.0994 85.2939 27.0994C84.9624 27.0994 84.6376 27.0282 84.3194 26.8857C84.0046 26.7431 83.7427 26.526 83.5339 26.2344C83.3284 25.9427 83.2257 25.5748 83.2257 25.1307V17.5341ZM90.8148 27.1591C90.1254 27.1591 89.5205 26.995 89.0002 26.6669C88.4831 26.3388 88.0788 25.8797 87.7871 25.2898C87.4988 24.6998 87.3546 24.0104 87.3546 23.2216C87.3546 22.4261 87.4988 21.7318 87.7871 21.1385C88.0788 20.5452 88.4831 20.0845 89.0002 19.7564C89.5205 19.4283 90.1254 19.2642 90.8148 19.2642C91.5042 19.2642 92.1074 19.4283 92.6245 19.7564C93.1448 20.0845 93.5492 20.5452 93.8375 21.1385C94.1292 21.7318 94.275 22.4261 94.275 23.2216C94.275 24.0104 94.1292 24.6998 93.8375 25.2898C93.5492 25.8797 93.1448 26.3388 92.6245 26.6669C92.1074 26.995 91.5042 27.1591 90.8148 27.1591ZM90.8148 26.1051C91.3385 26.1051 91.7694 25.9709 92.1074 25.7024C92.4455 25.4339 92.6957 25.081 92.8581 24.6435C93.0205 24.206 93.1017 23.732 93.1017 23.2216C93.1017 22.7112 93.0205 22.2356 92.8581 21.7947C92.6957 21.3539 92.4455 20.9976 92.1074 20.7259C91.7694 20.4541 91.3385 20.3182 90.8148 20.3182C90.2911 20.3182 89.8603 20.4541 89.5222 20.7259C89.1841 20.9976 88.9339 21.3539 88.7715 21.7947C88.6091 22.2356 88.5279 22.7112 88.5279 23.2216C88.5279 23.732 88.6091 24.206 88.7715 24.6435C88.9339 25.081 89.1841 25.4339 89.5222 25.7024C89.8603 25.9709 90.2911 26.1051 90.8148 26.1051ZM96.0661 27V19.3636H97.1996V20.5568H97.299C97.4581 20.1491 97.715 19.8326 98.0696 19.6072C98.4242 19.3786 98.8501 19.2642 99.3473 19.2642C99.8511 19.2642 100.27 19.3786 100.605 19.6072C100.943 19.8326 101.207 20.1491 101.396 20.5568H101.475C101.671 20.1624 101.964 19.8492 102.355 19.6172C102.746 19.3819 103.215 19.2642 103.762 19.2642C104.445 19.2642 105.003 19.478 105.438 19.9055C105.872 20.3298 106.089 20.991 106.089 21.8892V27H104.915V21.8892C104.915 21.3258 104.761 20.9231 104.453 20.6811C104.145 20.4392 103.782 20.3182 103.364 20.3182C102.827 20.3182 102.411 20.4806 102.116 20.8054C101.821 21.1269 101.674 21.5346 101.674 22.0284V27H100.481V21.7699C100.481 21.3357 100.34 20.986 100.058 20.7209C99.7765 20.4524 99.4136 20.3182 98.9695 20.3182C98.6645 20.3182 98.3795 20.3994 98.1143 20.5618C97.8525 20.7242 97.6404 20.9496 97.478 21.2379C97.3189 21.523 97.2393 21.8527 97.2393 22.2273V27H96.0661ZM111.436 27.1591C110.7 27.1591 110.065 26.9967 109.532 26.6719C109.001 26.3438 108.592 25.8864 108.304 25.2997C108.019 24.7098 107.876 24.0237 107.876 23.2415C107.876 22.4593 108.019 21.7699 108.304 21.1733C108.592 20.5734 108.993 20.1061 109.507 19.7713C110.024 19.4332 110.627 19.2642 111.316 19.2642C111.714 19.2642 112.107 19.3305 112.495 19.4631C112.882 19.5956 113.235 19.8111 113.554 20.1094C113.872 20.4044 114.125 20.7955 114.314 21.2827C114.503 21.7699 114.598 22.3698 114.598 23.0824V23.5795H108.711V22.5653H113.404C113.404 22.1345 113.318 21.75 113.146 21.4119C112.977 21.0739 112.735 20.8071 112.42 20.6115C112.109 20.416 111.741 20.3182 111.316 20.3182C110.849 20.3182 110.445 20.4342 110.103 20.6662C109.765 20.8949 109.505 21.1932 109.323 21.5611C109.141 21.929 109.049 22.3234 109.049 22.7443V23.4205C109.049 23.9972 109.149 24.486 109.348 24.8871C109.55 25.2848 109.83 25.5881 110.188 25.7969C110.546 26.0024 110.962 26.1051 111.436 26.1051C111.744 26.1051 112.022 26.062 112.271 25.9759C112.523 25.8864 112.74 25.7538 112.922 25.5781C113.105 25.3991 113.245 25.1771 113.345 24.9119L114.478 25.2301C114.359 25.6146 114.158 25.9527 113.877 26.2443C113.595 26.5327 113.247 26.758 112.833 26.9205C112.418 27.0795 111.953 27.1591 111.436 27.1591ZM116.382 27V19.3636H117.516V20.517H117.596C117.735 20.1392 117.987 19.8326 118.351 19.5973C118.716 19.362 119.127 19.2443 119.584 19.2443C119.67 19.2443 119.778 19.246 119.907 19.2493C120.037 19.2526 120.134 19.2576 120.201 19.2642V20.4574C120.161 20.4474 120.07 20.4325 119.927 20.4126C119.788 20.3894 119.641 20.3778 119.485 20.3778C119.114 20.3778 118.782 20.4557 118.49 20.6115C118.202 20.764 117.973 20.9761 117.804 21.2479C117.639 21.5163 117.556 21.8229 117.556 22.1676V27H116.382ZM127.001 21.0739L125.947 21.3722C125.88 21.1965 125.782 21.0258 125.653 20.8601C125.527 20.6911 125.355 20.5518 125.136 20.4425C124.917 20.3331 124.637 20.2784 124.296 20.2784C123.829 20.2784 123.439 20.3861 123.128 20.6016C122.819 20.8137 122.665 21.0838 122.665 21.4119C122.665 21.7036 122.771 21.9339 122.983 22.103C123.196 22.272 123.527 22.4129 123.978 22.5256L125.111 22.804C125.794 22.9697 126.303 23.2232 126.638 23.5646C126.972 23.9027 127.14 24.3385 127.14 24.8722C127.14 25.3097 127.014 25.7008 126.762 26.0455C126.513 26.3902 126.165 26.6619 125.718 26.8608C125.27 27.0597 124.75 27.1591 124.157 27.1591C123.378 27.1591 122.733 26.9901 122.223 26.652C121.712 26.3139 121.389 25.8201 121.253 25.1705L122.367 24.892C122.473 25.303 122.674 25.6113 122.969 25.8168C123.267 26.0223 123.656 26.125 124.137 26.125C124.684 26.125 125.118 26.009 125.439 25.777C125.764 25.5417 125.927 25.2599 125.927 24.9318C125.927 24.6667 125.834 24.4446 125.648 24.2656C125.463 24.0833 125.178 23.9474 124.793 23.858L123.52 23.5597C122.821 23.3939 122.307 23.1371 121.979 22.7891C121.654 22.4377 121.492 21.9986 121.492 21.4716C121.492 21.0407 121.613 20.6596 121.855 20.3281C122.1 19.9967 122.433 19.7365 122.854 19.5476C123.278 19.3587 123.759 19.2642 124.296 19.2642C125.052 19.2642 125.645 19.4299 126.076 19.7614C126.51 20.0928 126.818 20.5303 127.001 21.0739Z" fill="white"/>
<path fill-rule="evenodd" clip-rule="evenodd" d="M33 21C35.0871 21 36.9253 22.0656 38.0002 23.6825L37.9993 27H30L29.999 28.952L30.0215 30H18V29C18 25.6863 20.6863 23 24 23C25.3783 23 26.6509 23.4657 27.6662 24.2518C28.662 22.3204 30.6768 21 33 21ZM24 25C22.262 25 20.783 26.1084 20.2311 27.6569L20.1694 27.8447L20.126 28H27.873L27.8362 27.8625C27.3827 26.3295 26.0355 25.1846 24.4051 25.0203L24.1999 25.0049L24 25ZM33 23C31.6048 23 30.3764 23.7144 29.6606 24.7973L29.535 25H36.464L36.3707 24.845C35.6927 23.7872 34.5304 23.0708 33.2007 23.005L33 23ZM24 14C26.2091 14 28 15.7909 28 18C28 20.2091 26.2091 22 24 22C21.7909 22 20 20.2091 20 18C20 15.7909 21.7909 14 24 14ZM33 14C34.6569 14 36 15.3431 36 17C36 18.6569 34.6569 20 33 20C31.3431 20 30 18.6569 30 17C30 15.3431 31.3431 14 33 14ZM24 16C22.8954 16 22 16.8954 22 18C22 19.1046 22.8954 20 24 20C25.1046 20 26 19.1046 26 18C26 16.8954 25.1046 16 24 16ZM33 16C32.7239 16 32 16 32 16C32 16 32 16.7239 32 17C32 17.2761 32 18 32 18C32 18 32.7239 18 33 18C33.2761 18 34 18 34 18C34 18 34 17.2761 34 17C34 16.8644 34 16 34 16C34 16 33.1356 16 33 16Z" fill="white"/>
</svg>
