<svg width="223" height="44" viewBox="0 0 223 44" fill="none" xmlns="http://www.w3.org/2000/svg">
<path d="M64.1932 20C64.0838 19.6652 63.9396 19.3653 63.7607 19.1001C63.585 18.8317 63.3745 18.603 63.1293 18.4141C62.8873 18.2251 62.6122 18.081 62.304 17.9815C61.9957 17.8821 61.6577 17.8324 61.2898 17.8324C60.6866 17.8324 60.138 17.9882 59.6442 18.2997C59.1503 18.6113 58.7576 19.0703 58.4659 19.6768C58.1742 20.2834 58.0284 21.0275 58.0284 21.9091C58.0284 22.7907 58.1759 23.5348 58.4709 24.1413C58.7659 24.7479 59.1652 25.2069 59.669 25.5185C60.1728 25.83 60.7396 25.9858 61.3693 25.9858C61.9527 25.9858 62.4664 25.8615 62.9105 25.6129C63.358 25.361 63.706 25.0064 63.9545 24.549C64.2064 24.0883 64.3324 23.5464 64.3324 22.9233L64.7102 23.0028H61.6477V21.9091H65.5256V23.0028C65.5256 23.8414 65.3466 24.5705 64.9886 25.1903C64.634 25.8101 64.1435 26.2907 63.517 26.6321C62.8939 26.9702 62.178 27.1392 61.3693 27.1392C60.4678 27.1392 59.6757 26.9271 58.9929 26.5028C58.3134 26.0786 57.7831 25.4754 57.402 24.6932C57.0241 23.911 56.8352 22.983 56.8352 21.9091C56.8352 21.1037 56.9429 20.3795 57.1584 19.7365C57.3771 19.0902 57.6854 18.54 58.0831 18.0859C58.4808 17.6319 58.9515 17.2839 59.495 17.0419C60.0386 16.8 60.6368 16.679 61.2898 16.679C61.8267 16.679 62.3272 16.7602 62.7912 16.9226C63.2585 17.0817 63.6745 17.3087 64.0391 17.6037C64.407 17.8954 64.7135 18.245 64.9588 18.6527C65.2041 19.0571 65.3731 19.5062 65.4659 20H64.1932ZM68.6515 16.8182V27H67.4782V16.8182H68.6515ZM73.9027 27.1591C73.2133 27.1591 72.6084 26.995 72.0881 26.6669C71.571 26.3388 71.1667 25.8797 70.875 25.2898C70.5866 24.6998 70.4425 24.0104 70.4425 23.2216C70.4425 22.4261 70.5866 21.7318 70.875 21.1385C71.1667 20.5452 71.571 20.0845 72.0881 19.7564C72.6084 19.4283 73.2133 19.2642 73.9027 19.2642C74.5921 19.2642 75.1953 19.4283 75.7124 19.7564C76.2327 20.0845 76.6371 20.5452 76.9254 21.1385C77.2171 21.7318 77.3629 22.4261 77.3629 23.2216C77.3629 24.0104 77.2171 24.6998 76.9254 25.2898C76.6371 25.8797 76.2327 26.3388 75.7124 26.6669C75.1953 26.995 74.5921 27.1591 73.9027 27.1591ZM73.9027 26.1051C74.4264 26.1051 74.8572 25.9709 75.1953 25.7024C75.5334 25.4339 75.7836 25.081 75.946 24.6435C76.1084 24.206 76.1896 23.732 76.1896 23.2216C76.1896 22.7112 76.1084 22.2356 75.946 21.7947C75.7836 21.3539 75.5334 20.9976 75.1953 20.7259C74.8572 20.4541 74.4264 20.3182 73.9027 20.3182C73.379 20.3182 72.9482 20.4541 72.6101 20.7259C72.272 20.9976 72.0218 21.3539 71.8594 21.7947C71.697 22.2356 71.6158 22.7112 71.6158 23.2216C71.6158 23.732 71.697 24.206 71.8594 24.6435C72.0218 25.081 72.272 25.4339 72.6101 25.7024C72.9482 25.9709 73.379 26.1051 73.9027 26.1051ZM79.313 27V16.8182H80.4863V20.5767H80.5858C80.6719 20.4441 80.7913 20.2751 80.9437 20.0696C81.0995 19.8608 81.3216 19.6752 81.6099 19.5128C81.9016 19.3471 82.296 19.2642 82.7931 19.2642C83.4361 19.2642 84.0029 19.425 84.4934 19.7464C84.984 20.0679 85.3668 20.5237 85.6419 21.1136C85.917 21.7036 86.0545 22.3996 86.0545 23.2017C86.0545 24.0104 85.917 24.7114 85.6419 25.3047C85.3668 25.8946 84.9856 26.352 84.4984 26.6768C84.0112 26.9983 83.4494 27.1591 82.813 27.1591C82.3225 27.1591 81.9297 27.0779 81.6348 26.9155C81.3398 26.7498 81.1127 26.5625 80.9537 26.3537C80.7946 26.1416 80.6719 25.9659 80.5858 25.8267H80.4466V27H79.313ZM80.4664 23.1818C80.4664 23.7585 80.551 24.2673 80.72 24.7081C80.889 25.1456 81.1359 25.4886 81.4608 25.7372C81.7856 25.9825 82.1833 26.1051 82.6539 26.1051C83.1445 26.1051 83.5538 25.9759 83.8819 25.7173C84.2134 25.4555 84.4619 25.1042 84.6277 24.6634C84.7967 24.2192 84.8812 23.7254 84.8812 23.1818C84.8812 22.6449 84.7984 22.161 84.6326 21.7301C84.4702 21.2959 84.2233 20.9529 83.8919 20.701C83.5637 20.4458 83.1511 20.3182 82.6539 20.3182C82.1767 20.3182 81.7756 20.4392 81.4508 20.6811C81.126 20.9197 80.8807 21.2545 80.715 21.6854C80.5493 22.1129 80.4664 22.6117 80.4664 23.1818ZM90.0964 27.179C89.6125 27.179 89.1734 27.0878 88.7789 26.9055C88.3845 26.7199 88.0713 26.4531 87.8393 26.1051C87.6073 25.7538 87.4913 25.3295 87.4913 24.8324C87.4913 24.3949 87.5775 24.0402 87.7498 23.7685C87.9222 23.4934 88.1525 23.2779 88.4409 23.1222C88.7292 22.9664 89.0474 22.8504 89.3954 22.7741C89.7467 22.6946 90.0997 22.6316 90.4544 22.5852C90.9184 22.5256 91.2946 22.4808 91.5829 22.451C91.8746 22.4179 92.0867 22.3632 92.2193 22.2869C92.3552 22.2107 92.4231 22.0781 92.4231 21.8892V21.8494C92.4231 21.3589 92.2889 20.9777 92.0204 20.706C91.7553 20.4342 91.3526 20.2983 90.8123 20.2983C90.2522 20.2983 89.813 20.4209 89.4949 20.6662C89.1767 20.9115 88.9529 21.1733 88.8237 21.4517L87.71 21.054C87.9089 20.59 88.1741 20.2287 88.5055 19.9702C88.8403 19.7083 89.2048 19.526 89.5993 19.4233C89.997 19.3172 90.3881 19.2642 90.7725 19.2642C91.0178 19.2642 91.2995 19.294 91.6177 19.3537C91.9392 19.41 92.2491 19.5277 92.5474 19.7067C92.849 19.8857 93.0993 20.1558 93.2981 20.517C93.497 20.8783 93.5964 21.3622 93.5964 21.9688V27H92.4231V25.9659H92.3635C92.2839 26.1316 92.1513 26.3089 91.9657 26.4979C91.7801 26.6868 91.5332 26.8475 91.225 26.9801C90.9167 27.1127 90.5405 27.179 90.0964 27.179ZM90.2754 26.125C90.7394 26.125 91.1305 26.0339 91.4487 25.8516C91.7702 25.6693 92.0121 25.4339 92.1745 25.1456C92.3403 24.8572 92.4231 24.554 92.4231 24.2358V23.1619C92.3734 23.2216 92.264 23.2763 92.095 23.326C91.9293 23.3724 91.737 23.4138 91.5183 23.4503C91.3029 23.4834 91.0924 23.5133 90.8869 23.5398C90.6847 23.563 90.5207 23.5829 90.3947 23.5994C90.0898 23.6392 89.8047 23.7038 89.5396 23.7933C89.2778 23.8795 89.0656 24.0104 88.9032 24.1861C88.7441 24.3584 88.6646 24.5937 88.6646 24.892C88.6646 25.2997 88.8154 25.608 89.117 25.8168C89.4219 26.0223 89.8081 26.125 90.2754 26.125ZM96.9112 16.8182V27H95.7379V16.8182H96.9112ZM108.725 19.3636C108.665 18.8598 108.423 18.4688 107.999 18.1903C107.575 17.9119 107.055 17.7727 106.438 17.7727C105.987 17.7727 105.593 17.8456 105.255 17.9915C104.92 18.1373 104.658 18.3378 104.469 18.593C104.284 18.8482 104.191 19.1383 104.191 19.4631C104.191 19.7348 104.256 19.9685 104.385 20.1641C104.517 20.3563 104.686 20.517 104.892 20.6463C105.097 20.7723 105.313 20.8767 105.538 20.9595C105.764 21.0391 105.971 21.1037 106.16 21.1534L107.194 21.4318C107.459 21.5014 107.754 21.5975 108.079 21.7202C108.407 21.8428 108.72 22.0102 109.018 22.2223C109.32 22.4311 109.568 22.6996 109.764 23.0277C109.96 23.3558 110.057 23.7585 110.057 24.2358C110.057 24.786 109.913 25.2831 109.625 25.7273C109.34 26.1714 108.922 26.5244 108.372 26.7862C107.825 27.0481 107.161 27.179 106.378 27.179C105.649 27.179 105.018 27.0613 104.484 26.826C103.954 26.5907 103.536 26.2625 103.231 25.8416C102.93 25.4207 102.759 24.9318 102.719 24.375H103.992C104.025 24.7595 104.154 25.0777 104.38 25.3295C104.608 25.5781 104.897 25.7637 105.245 25.8864C105.596 26.0057 105.974 26.0653 106.378 26.0653C106.849 26.0653 107.272 25.9891 107.646 25.8366C108.021 25.6809 108.317 25.4654 108.536 25.1903C108.755 24.9119 108.864 24.5871 108.864 24.2159C108.864 23.8778 108.77 23.6027 108.581 23.3906C108.392 23.1785 108.143 23.0062 107.835 22.8736C107.527 22.741 107.194 22.625 106.836 22.5256L105.583 22.1676C104.787 21.9389 104.158 21.6125 103.694 21.1882C103.23 20.764 102.998 20.2088 102.998 19.5227C102.998 18.9527 103.152 18.4555 103.46 18.0312C103.772 17.6037 104.189 17.2723 104.713 17.0369C105.24 16.7983 105.828 16.679 106.478 16.679C107.134 16.679 107.717 16.7966 108.228 17.032C108.738 17.264 109.143 17.5821 109.441 17.9865C109.742 18.3909 109.902 18.8499 109.918 19.3636H108.725ZM115.127 27.1591C114.391 27.1591 113.757 26.9967 113.223 26.6719C112.693 26.3438 112.283 25.8864 111.995 25.2997C111.71 24.7098 111.567 24.0237 111.567 23.2415C111.567 22.4593 111.71 21.7699 111.995 21.1733C112.283 20.5734 112.684 20.1061 113.198 19.7713C113.715 19.4332 114.318 19.2642 115.008 19.2642C115.406 19.2642 115.798 19.3305 116.186 19.4631C116.574 19.5956 116.927 19.8111 117.245 20.1094C117.563 20.4044 117.817 20.7955 118.006 21.2827C118.195 21.7699 118.289 22.3698 118.289 23.0824V23.5795H112.403V22.5653H117.096C117.096 22.1345 117.01 21.75 116.837 21.4119C116.668 21.0739 116.426 20.8071 116.112 20.6115C115.8 20.416 115.432 20.3182 115.008 20.3182C114.54 20.3182 114.136 20.4342 113.795 20.6662C113.457 20.8949 113.196 21.1932 113.014 21.5611C112.832 21.929 112.741 22.3234 112.741 22.7443V23.4205C112.741 23.9972 112.84 24.486 113.039 24.8871C113.241 25.2848 113.521 25.5881 113.879 25.7969C114.237 26.0024 114.653 26.1051 115.127 26.1051C115.435 26.1051 115.714 26.062 115.962 25.9759C116.214 25.8864 116.431 25.7538 116.614 25.5781C116.796 25.3991 116.937 25.1771 117.036 24.9119L118.17 25.2301C118.05 25.6146 117.85 25.9527 117.568 26.2443C117.286 26.5327 116.938 26.758 116.524 26.9205C116.11 27.0795 115.644 27.1591 115.127 27.1591ZM123.395 19.3636V20.358H119.438V19.3636H123.395ZM120.591 17.5341H121.764V24.8125C121.764 25.1439 121.812 25.3925 121.908 25.5582C122.008 25.7206 122.134 25.83 122.286 25.8864C122.442 25.9394 122.606 25.9659 122.778 25.9659C122.908 25.9659 123.014 25.9593 123.097 25.946C123.179 25.9295 123.246 25.9162 123.295 25.9062L123.534 26.9602C123.455 26.9901 123.344 27.0199 123.201 27.0497C123.058 27.0829 122.878 27.0994 122.659 27.0994C122.328 27.0994 122.003 27.0282 121.685 26.8857C121.37 26.7431 121.108 26.526 120.899 26.2344C120.694 25.9427 120.591 25.5748 120.591 25.1307V17.5341ZM128.481 19.3636V20.358H124.523V19.3636H128.481ZM125.677 17.5341H126.85V24.8125C126.85 25.1439 126.898 25.3925 126.994 25.5582C127.094 25.7206 127.22 25.83 127.372 25.8864C127.528 25.9394 127.692 25.9659 127.864 25.9659C127.994 25.9659 128.1 25.9593 128.183 25.946C128.265 25.9295 128.332 25.9162 128.381 25.9062L128.62 26.9602C128.54 26.9901 128.429 27.0199 128.287 27.0497C128.144 27.0829 127.964 27.0994 127.745 27.0994C127.414 27.0994 127.089 27.0282 126.771 26.8857C126.456 26.7431 126.194 26.526 125.985 26.2344C125.78 25.9427 125.677 25.5748 125.677 25.1307V17.5341ZM130.246 27V19.3636H131.419V27H130.246ZM130.842 18.0909C130.614 18.0909 130.416 18.013 130.251 17.8572C130.088 17.7015 130.007 17.5142 130.007 17.2955C130.007 17.0767 130.088 16.8894 130.251 16.7337C130.416 16.5779 130.614 16.5 130.842 16.5C131.071 16.5 131.267 16.5779 131.429 16.7337C131.595 16.8894 131.678 17.0767 131.678 17.2955C131.678 17.5142 131.595 17.7015 131.429 17.8572C131.267 18.013 131.071 18.0909 130.842 18.0909ZM134.741 22.4062V27H133.568V19.3636H134.702V20.5568H134.801C134.98 20.169 135.252 19.8575 135.616 19.6222C135.981 19.3835 136.452 19.2642 137.028 19.2642C137.545 19.2642 137.998 19.3703 138.385 19.5824C138.773 19.7912 139.075 20.1094 139.29 20.5369C139.506 20.9612 139.613 21.4981 139.613 22.1477V27H138.44V22.2273C138.44 21.6274 138.284 21.16 137.973 20.8253C137.661 20.4872 137.234 20.3182 136.69 20.3182C136.316 20.3182 135.981 20.3994 135.686 20.5618C135.394 20.7242 135.164 20.9612 134.995 21.2727C134.826 21.5843 134.741 21.9621 134.741 22.4062ZM144.84 30.0227C144.273 30.0227 143.786 29.9498 143.378 29.804C142.971 29.6615 142.631 29.4725 142.359 29.2372C142.091 29.0052 141.877 28.7566 141.718 28.4915L142.652 27.8352C142.758 27.9744 142.893 28.1335 143.055 28.3125C143.217 28.4948 143.44 28.6522 143.721 28.7848C144.006 28.9207 144.379 28.9886 144.84 28.9886C145.456 28.9886 145.965 28.8395 146.366 28.5412C146.767 28.2429 146.968 27.7756 146.968 27.1392V25.5881H146.868C146.782 25.7273 146.659 25.8996 146.5 26.1051C146.345 26.3073 146.119 26.4879 145.824 26.647C145.533 26.8028 145.138 26.8807 144.641 26.8807C144.025 26.8807 143.471 26.7348 142.98 26.4432C142.493 26.1515 142.107 25.7273 141.822 25.1705C141.54 24.6136 141.4 23.9375 141.4 23.142C141.4 22.3598 141.537 21.6787 141.812 21.0987C142.087 20.5154 142.47 20.0646 142.961 19.7464C143.451 19.425 144.018 19.2642 144.661 19.2642C145.158 19.2642 145.552 19.3471 145.844 19.5128C146.139 19.6752 146.364 19.8608 146.52 20.0696C146.679 20.2751 146.802 20.4441 146.888 20.5767H147.007V19.3636H148.141V27.2188C148.141 27.875 147.992 28.4086 147.694 28.8196C147.399 29.2339 147.001 29.5372 146.5 29.7294C146.003 29.925 145.45 30.0227 144.84 30.0227ZM144.8 25.8267C145.271 25.8267 145.668 25.719 145.993 25.5036C146.318 25.2881 146.565 24.9782 146.734 24.5739C146.903 24.1695 146.988 23.6856 146.988 23.1222C146.988 22.572 146.905 22.0864 146.739 21.6655C146.573 21.2446 146.328 20.9148 146.003 20.6761C145.678 20.4375 145.277 20.3182 144.8 20.3182C144.303 20.3182 143.889 20.4441 143.557 20.696C143.229 20.9479 142.982 21.286 142.816 21.7102C142.654 22.1345 142.573 22.6051 142.573 23.1222C142.573 23.6525 142.656 24.1214 142.821 24.5291C142.99 24.9335 143.239 25.2517 143.567 25.4837C143.899 25.7124 144.31 25.8267 144.8 25.8267ZM155.698 21.0739L154.644 21.3722C154.578 21.1965 154.48 21.0258 154.35 20.8601C154.225 20.6911 154.052 20.5518 153.833 20.4425C153.615 20.3331 153.335 20.2784 152.993 20.2784C152.526 20.2784 152.136 20.3861 151.825 20.6016C151.517 20.8137 151.363 21.0838 151.363 21.4119C151.363 21.7036 151.469 21.9339 151.681 22.103C151.893 22.272 152.224 22.4129 152.675 22.5256L153.809 22.804C154.491 22.9697 155 23.2232 155.335 23.5646C155.67 23.9027 155.837 24.3385 155.837 24.8722C155.837 25.3097 155.711 25.7008 155.459 26.0455C155.211 26.3902 154.863 26.6619 154.415 26.8608C153.968 27.0597 153.447 27.1591 152.854 27.1591C152.075 27.1591 151.431 26.9901 150.92 26.652C150.41 26.3139 150.087 25.8201 149.951 25.1705L151.064 24.892C151.17 25.303 151.371 25.6113 151.666 25.8168C151.964 26.0223 152.354 26.125 152.834 26.125C153.381 26.125 153.815 26.009 154.137 25.777C154.462 25.5417 154.624 25.2599 154.624 24.9318C154.624 24.6667 154.531 24.4446 154.346 24.2656C154.16 24.0833 153.875 23.9474 153.49 23.858L152.218 23.5597C151.518 23.3939 151.005 23.1371 150.676 22.7891C150.352 22.4377 150.189 21.9986 150.189 21.4716C150.189 21.0407 150.31 20.6596 150.552 20.3281C150.797 19.9967 151.131 19.7365 151.551 19.5476C151.976 19.3587 152.456 19.2642 152.993 19.2642C153.749 19.2642 154.342 19.4299 154.773 19.7614C155.207 20.0928 155.516 20.5303 155.698 21.0739Z" fill="white"/>
<path fill-rule="evenodd" clip-rule="evenodd" d="M29.5 12L32 15L36 15.5L38 18.5L36 22L38 25.5L36 28.5L32 29L29.5 32H26.5L24 29L20 28.5L18 25.5L20 22L18 18.5L20 15.5L24 15L26.5 12H29.5ZM28.562 13.999H27.437L25.0312 16.8867L21.156 17.37L20.35 18.581L22.3035 22L20.35 25.418L21.156 26.629L25.0312 27.1133L27.436 29.999H28.563L30.9688 27.1133L34.843 26.629L35.649 25.418L33.6965 22L35.649 18.581L34.843 17.37L30.9688 16.8867L28.562 13.999ZM28 18C30.2091 18 32 19.7909 32 22C32 24.2091 30.2091 26 28 26C25.7909 26 24 24.2091 24 22C24 19.7909 25.7909 18 28 18ZM28 20C26.8954 20 26 20.8954 26 22C26 23.1046 26.8954 24 28 24C29.1046 24 30 23.1046 30 22C30 20.8954 29.1046 20 28 20Z" fill="white"/>
</svg>
