<svg width="223" height="44" viewBox="0 0 223 44" fill="none" xmlns="http://www.w3.org/2000/svg">
<path d="M58.4659 16.8182V27H57.233V16.8182H58.4659ZM61.9522 22.4062V27H60.7789V19.3636H61.9125V20.5568H62.0119C62.1909 20.169 62.4627 19.8575 62.8272 19.6222C63.1918 19.3835 63.6625 19.2642 64.2392 19.2642C64.7562 19.2642 65.2086 19.3703 65.5964 19.5824C65.9842 19.7912 66.2858 20.1094 66.5012 20.5369C66.7167 20.9612 66.8244 21.4981 66.8244 22.1477V27H65.6511V22.2273C65.6511 21.6274 65.4953 21.16 65.1838 20.8253C64.8722 20.4872 64.4447 20.3182 63.9011 20.3182C63.5266 20.3182 63.1918 20.3994 62.8968 20.5618C62.6052 20.7242 62.3748 20.9612 62.2058 21.2727C62.0368 21.5843 61.9522 21.9621 61.9522 22.4062ZM69.1275 27V16.8182H70.3008V20.5767H70.4002C70.4864 20.4441 70.6057 20.2751 70.7582 20.0696C70.9139 19.8608 71.136 19.6752 71.4244 19.5128C71.716 19.3471 72.1104 19.2642 72.6076 19.2642C73.2506 19.2642 73.8174 19.425 74.3079 19.7464C74.7984 20.0679 75.1812 20.5237 75.4563 21.1136C75.7314 21.7036 75.869 22.3996 75.869 23.2017C75.869 24.0104 75.7314 24.7114 75.4563 25.3047C75.1812 25.8946 74.8001 26.352 74.3129 26.6768C73.8256 26.9983 73.2638 27.1591 72.6275 27.1591C72.137 27.1591 71.7442 27.0779 71.4492 26.9155C71.1542 26.7498 70.9272 26.5625 70.7681 26.3537C70.609 26.1416 70.4864 25.9659 70.4002 25.8267H70.261V27H69.1275ZM70.2809 23.1818C70.2809 23.7585 70.3654 24.2673 70.5344 24.7081C70.7035 25.1456 70.9504 25.4886 71.2752 25.7372C71.6 25.9825 71.9978 26.1051 72.4684 26.1051C72.9589 26.1051 73.3683 25.9759 73.6964 25.7173C74.0278 25.4555 74.2764 25.1042 74.4421 24.6634C74.6112 24.2192 74.6957 23.7254 74.6957 23.1818C74.6957 22.6449 74.6128 22.161 74.4471 21.7301C74.2847 21.2959 74.0378 20.9529 73.7063 20.701C73.3782 20.4458 72.9656 20.3182 72.4684 20.3182C71.9911 20.3182 71.5901 20.4392 71.2653 20.6811C70.9405 20.9197 70.6952 21.2545 70.5295 21.6854C70.3638 22.1129 70.2809 22.6117 70.2809 23.1818ZM80.766 27.1591C80.0766 27.1591 79.4717 26.995 78.9513 26.6669C78.4343 26.3388 78.0299 25.8797 77.7383 25.2898C77.4499 24.6998 77.3058 24.0104 77.3058 23.2216C77.3058 22.4261 77.4499 21.7318 77.7383 21.1385C78.0299 20.5452 78.4343 20.0845 78.9513 19.7564C79.4717 19.4283 80.0766 19.2642 80.766 19.2642C81.4554 19.2642 82.0586 19.4283 82.5756 19.7564C83.096 20.0845 83.5004 20.5452 83.7887 21.1385C84.0804 21.7318 84.2262 22.4261 84.2262 23.2216C84.2262 24.0104 84.0804 24.6998 83.7887 25.2898C83.5004 25.8797 83.096 26.3388 82.5756 26.6669C82.0586 26.995 81.4554 27.1591 80.766 27.1591ZM80.766 26.1051C81.2897 26.1051 81.7205 25.9709 82.0586 25.7024C82.3967 25.4339 82.6469 25.081 82.8093 24.6435C82.9717 24.206 83.0529 23.732 83.0529 23.2216C83.0529 22.7112 82.9717 22.2356 82.8093 21.7947C82.6469 21.3539 82.3967 20.9976 82.0586 20.7259C81.7205 20.4541 81.2897 20.3182 80.766 20.3182C80.2423 20.3182 79.8114 20.4541 79.4734 20.7259C79.1353 20.9976 78.8851 21.3539 78.7227 21.7947C78.5603 22.2356 78.479 22.7112 78.479 23.2216C78.479 23.732 78.5603 24.206 78.7227 24.6435C78.8851 25.081 79.1353 25.4339 79.4734 25.7024C79.8114 25.9709 80.2423 26.1051 80.766 26.1051ZM86.5778 19.3636L88.4073 22.4858L90.2369 19.3636H91.5891L89.1232 23.1818L91.5891 27H90.2369L88.4073 24.0369L86.5778 27H85.2255L87.6516 23.1818L85.2255 19.3636H86.5778Z" fill="white"/>
<path fill-rule="evenodd" clip-rule="evenodd" d="M35 13C36.1046 13 37 13.8954 37 15V27C37 28.1046 36.1046 29 35 29H25L19 32L19 15C19 13.8954 19.8954 13 21 13H35ZM35 15H21V28.468L24.446 27H35V15ZM27 22V24H23V22H27ZM33 18V20H23V18H33Z" fill="white"/>
</svg>
