<svg width="223" height="44" viewBox="0 0 223 44" fill="none" xmlns="http://www.w3.org/2000/svg">
<path d="M57.233 27V16.8182H58.4659V21.8693H58.5852L63.1591 16.8182H64.7699L60.4943 21.4119L64.7699 27H63.2784L59.7386 22.267L58.4659 23.6989V27H57.233ZM67.38 22.4062V27H66.2067V19.3636H67.3402V20.5568H67.4396C67.6186 20.169 67.8904 19.8575 68.255 19.6222C68.6196 19.3835 69.0902 19.2642 69.6669 19.2642C70.1839 19.2642 70.6364 19.3703 71.0241 19.5824C71.4119 19.7912 71.7135 20.1094 71.929 20.5369C72.1444 20.9612 72.2521 21.4981 72.2521 22.1477V27H71.0788V22.2273C71.0788 21.6274 70.9231 21.16 70.6115 20.8253C70.3 20.4872 69.8724 20.3182 69.3288 20.3182C68.9543 20.3182 68.6196 20.3994 68.3246 20.5618C68.0329 20.7242 67.8026 20.9612 67.6335 21.2727C67.4645 21.5843 67.38 21.9621 67.38 22.4062ZM77.4984 27.1591C76.809 27.1591 76.2041 26.995 75.6838 26.6669C75.1667 26.3388 74.7624 25.8797 74.4707 25.2898C74.1824 24.6998 74.0382 24.0104 74.0382 23.2216C74.0382 22.4261 74.1824 21.7318 74.4707 21.1385C74.7624 20.5452 75.1667 20.0845 75.6838 19.7564C76.2041 19.4283 76.809 19.2642 77.4984 19.2642C78.1878 19.2642 78.791 19.4283 79.3081 19.7564C79.8284 20.0845 80.2328 20.5452 80.5211 21.1385C80.8128 21.7318 80.9586 22.4261 80.9586 23.2216C80.9586 24.0104 80.8128 24.6998 80.5211 25.2898C80.2328 25.8797 79.8284 26.3388 79.3081 26.6669C78.791 26.995 78.1878 27.1591 77.4984 27.1591ZM77.4984 26.1051C78.0221 26.1051 78.4529 25.9709 78.791 25.7024C79.1291 25.4339 79.3793 25.081 79.5417 24.6435C79.7041 24.206 79.7853 23.732 79.7853 23.2216C79.7853 22.7112 79.7041 22.2356 79.5417 21.7947C79.3793 21.3539 79.1291 20.9976 78.791 20.7259C78.4529 20.4541 78.0221 20.3182 77.4984 20.3182C76.9747 20.3182 76.5439 20.4541 76.2058 20.7259C75.8677 20.9976 75.6175 21.3539 75.4551 21.7947C75.2927 22.2356 75.2115 22.7112 75.2115 23.2216C75.2115 23.732 75.2927 24.206 75.4551 24.6435C75.6175 25.081 75.8677 25.4339 76.2058 25.7024C76.5439 25.9709 76.9747 26.1051 77.4984 26.1051ZM84.22 27L81.8933 19.3636H83.1262L84.7768 25.2102H84.8564L86.487 19.3636H87.7399L89.3507 25.1903H89.4302L91.0808 19.3636H92.3137L89.987 27H88.8336L87.1632 21.1335H87.0439L85.3734 27H84.22ZM95.0382 16.8182V27H93.8649V16.8182H95.0382ZM100.389 27.1591C99.6531 27.1591 99.0183 26.9967 98.4847 26.6719C97.9544 26.3438 97.5451 25.8864 97.2567 25.2997C96.9717 24.7098 96.8292 24.0237 96.8292 23.2415C96.8292 22.4593 96.9717 21.7699 97.2567 21.1733C97.5451 20.5734 97.9461 20.1061 98.4599 19.7713C98.9769 19.4332 99.5801 19.2642 100.27 19.2642C100.667 19.2642 101.06 19.3305 101.448 19.4631C101.836 19.5956 102.189 19.8111 102.507 20.1094C102.825 20.4044 103.078 20.7955 103.267 21.2827C103.456 21.7699 103.551 22.3698 103.551 23.0824V23.5795H97.6644V22.5653H102.358C102.358 22.1345 102.271 21.75 102.099 21.4119C101.93 21.0739 101.688 20.8071 101.373 20.6115C101.062 20.416 100.694 20.3182 100.27 20.3182C99.8022 20.3182 99.3978 20.4342 99.0565 20.6662C98.7184 20.8949 98.4582 21.1932 98.2759 21.5611C98.0936 21.929 98.0025 22.3234 98.0025 22.7443V23.4205C98.0025 23.9972 98.1019 24.486 98.3008 24.8871C98.503 25.2848 98.783 25.5881 99.141 25.7969C99.4989 26.0024 99.9149 26.1051 100.389 26.1051C100.697 26.1051 100.975 26.062 101.224 25.9759C101.476 25.8864 101.693 25.7538 101.875 25.5781C102.058 25.3991 102.199 25.1771 102.298 24.9119L103.431 25.2301C103.312 25.6146 103.112 25.9527 102.83 26.2443C102.548 26.5327 102.2 26.758 101.786 26.9205C101.372 27.0795 100.906 27.1591 100.389 27.1591ZM108.219 27.1591C107.583 27.1591 107.021 26.9983 106.534 26.6768C106.047 26.352 105.665 25.8946 105.39 25.3047C105.115 24.7114 104.978 24.0104 104.978 23.2017C104.978 22.3996 105.115 21.7036 105.39 21.1136C105.665 20.5237 106.048 20.0679 106.539 19.7464C107.029 19.425 107.596 19.2642 108.239 19.2642C108.736 19.2642 109.129 19.3471 109.417 19.5128C109.709 19.6752 109.931 19.8608 110.083 20.0696C110.239 20.2751 110.36 20.4441 110.446 20.5767H110.546V16.8182H111.719V27H110.586V25.8267H110.446C110.36 25.9659 110.238 26.1416 110.078 26.3537C109.919 26.5625 109.692 26.7498 109.397 26.9155C109.102 27.0779 108.71 27.1591 108.219 27.1591ZM108.378 26.1051C108.849 26.1051 109.247 25.9825 109.571 25.7372C109.896 25.4886 110.143 25.1456 110.312 24.7081C110.481 24.2673 110.566 23.7585 110.566 23.1818C110.566 22.6117 110.483 22.1129 110.317 21.6854C110.151 21.2545 109.906 20.9197 109.581 20.6811C109.257 20.4392 108.855 20.3182 108.378 20.3182C107.881 20.3182 107.467 20.4458 107.135 20.701C106.807 20.9529 106.56 21.2959 106.395 21.7301C106.232 22.161 106.151 22.6449 106.151 23.1818C106.151 23.7254 106.234 24.2192 106.4 24.6634C106.569 25.1042 106.817 25.4555 107.145 25.7173C107.477 25.9759 107.888 26.1051 108.378 26.1051ZM117.113 30.0227C116.547 30.0227 116.059 29.9498 115.652 29.804C115.244 29.6615 114.904 29.4725 114.632 29.2372C114.364 29.0052 114.15 28.7566 113.991 28.4915L114.926 27.8352C115.032 27.9744 115.166 28.1335 115.328 28.3125C115.491 28.4948 115.713 28.6522 115.995 28.7848C116.28 28.9207 116.653 28.9886 117.113 28.9886C117.73 28.9886 118.239 28.8395 118.64 28.5412C119.041 28.2429 119.241 27.7756 119.241 27.1392V25.5881H119.142C119.056 25.7273 118.933 25.8996 118.774 26.1051C118.618 26.3073 118.393 26.4879 118.098 26.647C117.806 26.8028 117.412 26.8807 116.914 26.8807C116.298 26.8807 115.744 26.7348 115.254 26.4432C114.767 26.1515 114.381 25.7273 114.096 25.1705C113.814 24.6136 113.673 23.9375 113.673 23.142C113.673 22.3598 113.81 21.6787 114.086 21.0987C114.361 20.5154 114.743 20.0646 115.234 19.7464C115.725 19.425 116.291 19.2642 116.934 19.2642C117.431 19.2642 117.826 19.3471 118.118 19.5128C118.413 19.6752 118.638 19.8608 118.794 20.0696C118.953 20.2751 119.075 20.4441 119.162 20.5767H119.281V19.3636H120.414V27.2188C120.414 27.875 120.265 28.4086 119.967 28.8196C119.672 29.2339 119.274 29.5372 118.774 29.7294C118.277 29.925 117.723 30.0227 117.113 30.0227ZM117.074 25.8267C117.544 25.8267 117.942 25.719 118.267 25.5036C118.592 25.2881 118.838 24.9782 119.007 24.5739C119.176 24.1695 119.261 23.6856 119.261 23.1222C119.261 22.572 119.178 22.0864 119.012 21.6655C118.847 21.2446 118.601 20.9148 118.277 20.6761C117.952 20.4375 117.551 20.3182 117.074 20.3182C116.576 20.3182 116.162 20.4441 115.831 20.696C115.502 20.9479 115.256 21.286 115.09 21.7102C114.927 22.1345 114.846 22.6051 114.846 23.1222C114.846 23.6525 114.929 24.1214 115.095 24.5291C115.264 24.9335 115.512 25.2517 115.841 25.4837C116.172 25.7124 116.583 25.8267 117.074 25.8267ZM125.764 27.1591C125.028 27.1591 124.393 26.9967 123.86 26.6719C123.329 26.3438 122.92 25.8864 122.632 25.2997C122.347 24.7098 122.204 24.0237 122.204 23.2415C122.204 22.4593 122.347 21.7699 122.632 21.1733C122.92 20.5734 123.321 20.1061 123.835 19.7713C124.352 19.4332 124.955 19.2642 125.645 19.2642C126.042 19.2642 126.435 19.3305 126.823 19.4631C127.211 19.5956 127.564 19.8111 127.882 20.1094C128.2 20.4044 128.453 20.7955 128.642 21.2827C128.831 21.7699 128.926 22.3698 128.926 23.0824V23.5795H123.039V22.5653H127.733C127.733 22.1345 127.646 21.75 127.474 21.4119C127.305 21.0739 127.063 20.8071 126.748 20.6115C126.437 20.416 126.069 20.3182 125.645 20.3182C125.177 20.3182 124.773 20.4342 124.431 20.6662C124.093 20.8949 123.833 21.1932 123.651 21.5611C123.469 21.929 123.377 22.3234 123.377 22.7443V23.4205C123.377 23.9972 123.477 24.486 123.676 24.8871C123.878 25.2848 124.158 25.5881 124.516 25.7969C124.874 26.0024 125.29 26.1051 125.764 26.1051C126.072 26.1051 126.35 26.062 126.599 25.9759C126.851 25.8864 127.068 25.7538 127.25 25.5781C127.433 25.3991 127.574 25.1771 127.673 24.9119L128.806 25.2301C128.687 25.6146 128.487 25.9527 128.205 26.2443C127.923 26.5327 127.575 26.758 127.161 26.9205C126.747 27.0795 126.281 27.1591 125.764 27.1591ZM134.807 27V16.8182H138.367C139.076 16.8182 139.661 16.9408 140.122 17.1861C140.583 17.428 140.926 17.7545 141.151 18.1655C141.376 18.5732 141.489 19.0256 141.489 19.5227C141.489 19.9602 141.411 20.3215 141.255 20.6065C141.103 20.8916 140.901 21.117 140.649 21.2827C140.4 21.4484 140.13 21.571 139.838 21.6506V21.75C140.15 21.7699 140.463 21.8793 140.778 22.0781C141.093 22.277 141.356 22.562 141.569 22.9332C141.781 23.3045 141.887 23.7585 141.887 24.2955C141.887 24.8059 141.771 25.2649 141.539 25.6726C141.307 26.0803 140.94 26.4034 140.44 26.642C139.94 26.8807 139.288 27 138.486 27H134.807ZM136.04 25.9062H138.486C139.292 25.9062 139.863 25.7505 140.201 25.4389C140.543 25.1241 140.713 24.7429 140.713 24.2955C140.713 23.9508 140.626 23.6326 140.45 23.3409C140.274 23.0459 140.024 22.8106 139.699 22.6349C139.374 22.456 138.99 22.3665 138.546 22.3665H136.04V25.9062ZM136.04 21.2926H138.327C138.698 21.2926 139.033 21.2197 139.331 21.0739C139.633 20.928 139.872 20.7225 140.047 20.4574C140.226 20.1922 140.316 19.8807 140.316 19.5227C140.316 19.0753 140.16 18.6958 139.848 18.3842C139.537 18.0694 139.043 17.9119 138.367 17.9119H136.04V21.2926ZM146.001 27.179C145.517 27.179 145.078 27.0878 144.683 26.9055C144.289 26.7199 143.976 26.4531 143.744 26.1051C143.512 25.7538 143.396 25.3295 143.396 24.8324C143.396 24.3949 143.482 24.0402 143.654 23.7685C143.826 23.4934 144.057 23.2779 144.345 23.1222C144.634 22.9664 144.952 22.8504 145.3 22.7741C145.651 22.6946 146.004 22.6316 146.359 22.5852C146.823 22.5256 147.199 22.4808 147.487 22.451C147.779 22.4179 147.991 22.3632 148.124 22.2869C148.259 22.2107 148.327 22.0781 148.327 21.8892V21.8494C148.327 21.3589 148.193 20.9777 147.925 20.706C147.66 20.4342 147.257 20.2983 146.717 20.2983C146.156 20.2983 145.717 20.4209 145.399 20.6662C145.081 20.9115 144.857 21.1733 144.728 21.4517L143.614 21.054C143.813 20.59 144.078 20.2287 144.41 19.9702C144.745 19.7083 145.109 19.526 145.504 19.4233C145.901 19.3172 146.292 19.2642 146.677 19.2642C146.922 19.2642 147.204 19.294 147.522 19.3537C147.844 19.41 148.153 19.5277 148.452 19.7067C148.753 19.8857 149.004 20.1558 149.202 20.517C149.401 20.8783 149.501 21.3622 149.501 21.9688V27H148.327V25.9659H148.268C148.188 26.1316 148.056 26.3089 147.87 26.4979C147.684 26.6868 147.438 26.8475 147.129 26.9801C146.821 27.1127 146.445 27.179 146.001 27.179ZM146.18 26.125C146.644 26.125 147.035 26.0339 147.353 25.8516C147.674 25.6693 147.916 25.4339 148.079 25.1456C148.245 24.8572 148.327 24.554 148.327 24.2358V23.1619C148.278 23.2216 148.168 23.2763 147.999 23.326C147.834 23.3724 147.641 23.4138 147.423 23.4503C147.207 23.4834 146.997 23.5133 146.791 23.5398C146.589 23.563 146.425 23.5829 146.299 23.5994C145.994 23.6392 145.709 23.7038 145.444 23.7933C145.182 23.8795 144.97 24.0104 144.808 24.1861C144.648 24.3584 144.569 24.5937 144.569 24.892C144.569 25.2997 144.72 25.608 145.021 25.8168C145.326 26.0223 145.712 26.125 146.18 26.125ZM157.051 21.0739L155.997 21.3722C155.931 21.1965 155.833 21.0258 155.704 20.8601C155.578 20.6911 155.406 20.5518 155.187 20.4425C154.968 20.3331 154.688 20.2784 154.347 20.2784C153.879 20.2784 153.49 20.3861 153.178 20.6016C152.87 20.8137 152.716 21.0838 152.716 21.4119C152.716 21.7036 152.822 21.9339 153.034 22.103C153.246 22.272 153.578 22.4129 154.029 22.5256L155.162 22.804C155.845 22.9697 156.354 23.2232 156.688 23.5646C157.023 23.9027 157.191 24.3385 157.191 24.8722C157.191 25.3097 157.065 25.7008 156.813 26.0455C156.564 26.3902 156.216 26.6619 155.769 26.8608C155.321 27.0597 154.801 27.1591 154.208 27.1591C153.429 27.1591 152.784 26.9901 152.274 26.652C151.763 26.3139 151.44 25.8201 151.304 25.1705L152.418 24.892C152.524 25.303 152.724 25.6113 153.019 25.8168C153.318 26.0223 153.707 26.125 154.188 26.125C154.735 26.125 155.169 26.009 155.49 25.777C155.815 25.5417 155.977 25.2599 155.977 24.9318C155.977 24.6667 155.885 24.4446 155.699 24.2656C155.513 24.0833 155.228 23.9474 154.844 23.858L153.571 23.5597C152.872 23.3939 152.358 23.1371 152.03 22.7891C151.705 22.4377 151.543 21.9986 151.543 21.4716C151.543 21.0407 151.664 20.6596 151.906 20.3281C152.151 19.9967 152.484 19.7365 152.905 19.5476C153.329 19.3587 153.81 19.2642 154.347 19.2642C155.102 19.2642 155.696 19.4299 156.127 19.7614C156.561 20.0928 156.869 20.5303 157.051 21.0739ZM162.158 27.1591C161.423 27.1591 160.788 26.9967 160.254 26.6719C159.724 26.3438 159.315 25.8864 159.026 25.2997C158.741 24.7098 158.599 24.0237 158.599 23.2415C158.599 22.4593 158.741 21.7699 159.026 21.1733C159.315 20.5734 159.716 20.1061 160.229 19.7713C160.746 19.4332 161.35 19.2642 162.039 19.2642C162.437 19.2642 162.83 19.3305 163.217 19.4631C163.605 19.5956 163.958 19.8111 164.276 20.1094C164.594 20.4044 164.848 20.7955 165.037 21.2827C165.226 21.7699 165.32 22.3698 165.32 23.0824V23.5795H159.434V22.5653H164.127C164.127 22.1345 164.041 21.75 163.869 21.4119C163.7 21.0739 163.458 20.8071 163.143 20.6115C162.831 20.416 162.463 20.3182 162.039 20.3182C161.572 20.3182 161.167 20.4342 160.826 20.6662C160.488 20.8949 160.228 21.1932 160.045 21.5611C159.863 21.929 159.772 22.3234 159.772 22.7443V23.4205C159.772 23.9972 159.871 24.486 160.07 24.8871C160.272 25.2848 160.553 25.5881 160.911 25.7969C161.268 26.0024 161.684 26.1051 162.158 26.1051C162.467 26.1051 162.745 26.062 162.994 25.9759C163.246 25.8864 163.463 25.7538 163.645 25.5781C163.827 25.3991 163.968 25.1771 164.067 24.9119L165.201 25.2301C165.082 25.6146 164.881 25.9527 164.599 26.2443C164.318 26.5327 163.97 26.758 163.555 26.9205C163.141 27.0795 162.675 27.1591 162.158 27.1591Z" fill="white"/>
<path fill-rule="evenodd" clip-rule="evenodd" d="M28 12C33.5228 12 38 16.4772 38 22C38 27.5228 33.5228 32 28 32C22.4772 32 18 27.5228 18 22C18 16.4772 22.4772 12 28 12ZM28 14C23.5817 14 20 17.5817 20 22C20 26.4183 23.5817 30 28 30C32.4183 30 36 26.4183 36 22C36 17.5817 32.4183 14 28 14ZM32 20C32 17.7909 30.2091 16 28 16C25.7909 16 24 17.7909 24 20H26L26.0055 19.8507C26.0818 18.8159 26.9456 18 28 18C29.1046 18 30 18.8954 30 20C30 21.1046 29.1046 22 28 22C27.4477 22 27 22.4477 27 23V24C27 24.5523 27.4477 25 28 25C28.5523 25 29 24.5523 29 24V23.874C30.7252 23.4299 32 21.8638 32 20ZM29 28V26H27V28H29Z" fill="white"/>
</svg>
