<svg width="223" height="44" viewBox="0 0 223 44" fill="none" xmlns="http://www.w3.org/2000/svg">
<path d="M57.233 27V16.8182H60.6733C61.4721 16.8182 62.125 16.9624 62.6321 17.2507C63.1425 17.5357 63.5204 17.9219 63.7656 18.4091C64.0109 18.8963 64.1335 19.4399 64.1335 20.0398C64.1335 20.6397 64.0109 21.1849 63.7656 21.6754C63.5237 22.166 63.1491 22.5571 62.642 22.8487C62.1349 23.1371 61.4853 23.2812 60.6932 23.2812H58.2273V22.1875H60.6534C61.2003 22.1875 61.6394 22.093 61.9709 21.9041C62.3023 21.7152 62.5426 21.46 62.6918 21.1385C62.8442 20.8137 62.9205 20.4474 62.9205 20.0398C62.9205 19.6321 62.8442 19.2675 62.6918 18.946C62.5426 18.6245 62.3007 18.3726 61.9659 18.1903C61.6312 18.0047 61.187 17.9119 60.6335 17.9119H58.4659V27H57.233ZM69.0803 27.1591C68.3445 27.1591 67.7098 26.9967 67.1761 26.6719C66.6458 26.3438 66.2365 25.8864 65.9482 25.2997C65.6631 24.7098 65.5206 24.0237 65.5206 23.2415C65.5206 22.4593 65.6631 21.7699 65.9482 21.1733C66.2365 20.5734 66.6375 20.1061 67.1513 19.7713C67.6683 19.4332 68.2715 19.2642 68.9609 19.2642C69.3587 19.2642 69.7514 19.3305 70.1392 19.4631C70.527 19.5956 70.88 19.8111 71.1982 20.1094C71.5163 20.4044 71.7699 20.7955 71.9588 21.2827C72.1477 21.7699 72.2422 22.3698 72.2422 23.0824V23.5795H66.3558V22.5653H71.049C71.049 22.1345 70.9628 21.75 70.7905 21.4119C70.6214 21.0739 70.3795 20.8071 70.0646 20.6115C69.7531 20.416 69.3852 20.3182 68.9609 20.3182C68.4936 20.3182 68.0893 20.4342 67.7479 20.6662C67.4098 20.8949 67.1496 21.1932 66.9673 21.5611C66.785 21.929 66.6939 22.3234 66.6939 22.7443V23.4205C66.6939 23.9972 66.7933 24.486 66.9922 24.8871C67.1944 25.2848 67.4744 25.5881 67.8324 25.7969C68.1903 26.0024 68.6063 26.1051 69.0803 26.1051C69.3885 26.1051 69.6669 26.062 69.9155 25.9759C70.1674 25.8864 70.3845 25.7538 70.5668 25.5781C70.7491 25.3991 70.8899 25.1771 70.9893 24.9119L72.1229 25.2301C72.0036 25.6146 71.803 25.9527 71.5213 26.2443C71.2396 26.5327 70.8916 26.758 70.4773 26.9205C70.063 27.0795 69.5973 27.1591 69.0803 27.1591ZM74.027 27V19.3636H75.1605V20.517H75.2401C75.3793 20.1392 75.6312 19.8326 75.9957 19.5973C76.3603 19.362 76.7713 19.2443 77.2287 19.2443C77.3149 19.2443 77.4226 19.246 77.5518 19.2493C77.6811 19.2526 77.7789 19.2576 77.8452 19.2642V20.4574C77.8054 20.4474 77.7143 20.4325 77.5717 20.4126C77.4325 20.3894 77.285 20.3778 77.1293 20.3778C76.758 20.3778 76.4266 20.4557 76.1349 20.6115C75.8466 20.764 75.6179 20.9761 75.4489 21.2479C75.2831 21.5163 75.2003 21.8229 75.2003 22.1676V27H74.027ZM84.6451 21.0739L83.5911 21.3722C83.5248 21.1965 83.427 21.0258 83.2978 20.8601C83.1718 20.6911 82.9995 20.5518 82.7807 20.4425C82.562 20.3331 82.2819 20.2784 81.9405 20.2784C81.4732 20.2784 81.0837 20.3861 80.7722 20.6016C80.464 20.8137 80.3098 21.0838 80.3098 21.4119C80.3098 21.7036 80.4159 21.9339 80.628 22.103C80.8401 22.272 81.1716 22.4129 81.6223 22.5256L82.7559 22.804C83.4386 22.9697 83.9474 23.2232 84.2821 23.5646C84.6169 23.9027 84.7843 24.3385 84.7843 24.8722C84.7843 25.3097 84.6583 25.7008 84.4064 26.0455C84.1578 26.3902 83.8098 26.6619 83.3624 26.8608C82.915 27.0597 82.3946 27.1591 81.8013 27.1591C81.0224 27.1591 80.3778 26.9901 79.8674 26.652C79.3569 26.3139 79.0338 25.8201 78.8979 25.1705L80.0115 24.892C80.1176 25.303 80.3181 25.6113 80.6131 25.8168C80.9114 26.0223 81.3008 26.125 81.7814 26.125C82.3283 26.125 82.7625 26.009 83.084 25.777C83.4088 25.5417 83.5712 25.2599 83.5712 24.9318C83.5712 24.6667 83.4784 24.4446 83.2928 24.2656C83.1072 24.0833 82.8221 23.9474 82.4377 23.858L81.165 23.5597C80.4656 23.3939 79.9519 23.1371 79.6238 22.7891C79.2989 22.4377 79.1365 21.9986 79.1365 21.4716C79.1365 21.0407 79.2575 20.6596 79.4995 20.3281C79.7447 19.9967 80.0778 19.7365 80.4988 19.5476C80.923 19.3587 81.4036 19.2642 81.9405 19.2642C82.6962 19.2642 83.2895 19.4299 83.7203 19.7614C84.1545 20.0928 84.4628 20.5303 84.6451 21.0739ZM89.6527 27.1591C88.9633 27.1591 88.3584 26.995 87.8381 26.6669C87.321 26.3388 86.9167 25.8797 86.625 25.2898C86.3366 24.6998 86.1925 24.0104 86.1925 23.2216C86.1925 22.4261 86.3366 21.7318 86.625 21.1385C86.9167 20.5452 87.321 20.0845 87.8381 19.7564C88.3584 19.4283 88.9633 19.2642 89.6527 19.2642C90.3421 19.2642 90.9453 19.4283 91.4624 19.7564C91.9827 20.0845 92.3871 20.5452 92.6754 21.1385C92.9671 21.7318 93.1129 22.4261 93.1129 23.2216C93.1129 24.0104 92.9671 24.6998 92.6754 25.2898C92.3871 25.8797 91.9827 26.3388 91.4624 26.6669C90.9453 26.995 90.3421 27.1591 89.6527 27.1591ZM89.6527 26.1051C90.1764 26.1051 90.6072 25.9709 90.9453 25.7024C91.2834 25.4339 91.5336 25.081 91.696 24.6435C91.8584 24.206 91.9396 23.732 91.9396 23.2216C91.9396 22.7112 91.8584 22.2356 91.696 21.7947C91.5336 21.3539 91.2834 20.9976 90.9453 20.7259C90.6072 20.4541 90.1764 20.3182 89.6527 20.3182C89.129 20.3182 88.6982 20.4541 88.3601 20.7259C88.022 20.9976 87.7718 21.3539 87.6094 21.7947C87.447 22.2356 87.3658 22.7112 87.3658 23.2216C87.3658 23.732 87.447 24.206 87.6094 24.6435C87.7718 25.081 88.022 25.4339 88.3601 25.7024C88.6982 25.9709 89.129 26.1051 89.6527 26.1051ZM96.0772 22.4062V27H94.9039V19.3636H96.0375V20.5568H96.1369C96.3159 20.169 96.5877 19.8575 96.9522 19.6222C97.3168 19.3835 97.7875 19.2642 98.3642 19.2642C98.8812 19.2642 99.3336 19.3703 99.7214 19.5824C100.109 19.7912 100.411 20.1094 100.626 20.5369C100.842 20.9612 100.949 21.4981 100.949 22.1477V27H99.7761V22.2273C99.7761 21.6274 99.6203 21.16 99.3088 20.8253C98.9972 20.4872 98.5697 20.3182 98.0261 20.3182C97.6516 20.3182 97.3168 20.3994 97.0218 20.5618C96.7302 20.7242 96.4998 20.9612 96.3308 21.2727C96.1618 21.5843 96.0772 21.9621 96.0772 22.4062ZM105.341 27.179C104.857 27.179 104.417 27.0878 104.023 26.9055C103.629 26.7199 103.315 26.4531 103.083 26.1051C102.851 25.7538 102.735 25.3295 102.735 24.8324C102.735 24.3949 102.822 24.0402 102.994 23.7685C103.166 23.4934 103.397 23.2779 103.685 23.1222C103.973 22.9664 104.292 22.8504 104.64 22.7741C104.991 22.6946 105.344 22.6316 105.699 22.5852C106.163 22.5256 106.539 22.4808 106.827 22.451C107.119 22.4179 107.331 22.3632 107.463 22.2869C107.599 22.2107 107.667 22.0781 107.667 21.8892V21.8494C107.667 21.3589 107.533 20.9777 107.265 20.706C106.999 20.4342 106.597 20.2983 106.056 20.2983C105.496 20.2983 105.057 20.4209 104.739 20.6662C104.421 20.9115 104.197 21.1733 104.068 21.4517L102.954 21.054C103.153 20.59 103.418 20.2287 103.75 19.9702C104.084 19.7083 104.449 19.526 104.843 19.4233C105.241 19.3172 105.632 19.2642 106.017 19.2642C106.262 19.2642 106.544 19.294 106.862 19.3537C107.183 19.41 107.493 19.5277 107.792 19.7067C108.093 19.8857 108.343 20.1558 108.542 20.517C108.741 20.8783 108.841 21.3622 108.841 21.9688V27H107.667V25.9659H107.608C107.528 26.1316 107.395 26.3089 107.21 26.4979C107.024 26.6868 106.777 26.8475 106.469 26.9801C106.161 27.1127 105.785 27.179 105.341 27.179ZM105.52 26.125C105.984 26.125 106.375 26.0339 106.693 25.8516C107.014 25.6693 107.256 25.4339 107.419 25.1456C107.584 24.8572 107.667 24.554 107.667 24.2358V23.1619C107.618 23.2216 107.508 23.2763 107.339 23.326C107.173 23.3724 106.981 23.4138 106.762 23.4503C106.547 23.4834 106.337 23.5133 106.131 23.5398C105.929 23.563 105.765 23.5829 105.639 23.5994C105.334 23.6392 105.049 23.7038 104.784 23.7933C104.522 23.8795 104.31 24.0104 104.147 24.1861C103.988 24.3584 103.909 24.5937 103.909 24.892C103.909 25.2997 104.06 25.608 104.361 25.8168C104.666 26.0223 105.052 26.125 105.52 26.125ZM112.155 16.8182V27H110.982V16.8182H112.155ZM123.969 19.3636C123.909 18.8598 123.667 18.4688 123.243 18.1903C122.819 17.9119 122.299 17.7727 121.682 17.7727C121.231 17.7727 120.837 17.8456 120.499 17.9915C120.164 18.1373 119.902 18.3378 119.713 18.593C119.528 18.8482 119.435 19.1383 119.435 19.4631C119.435 19.7348 119.5 19.9685 119.629 20.1641C119.761 20.3563 119.931 20.517 120.136 20.6463C120.342 20.7723 120.557 20.8767 120.782 20.9595C121.008 21.0391 121.215 21.1037 121.404 21.1534L122.438 21.4318C122.703 21.5014 122.998 21.5975 123.323 21.7202C123.651 21.8428 123.964 22.0102 124.262 22.2223C124.564 22.4311 124.813 22.6996 125.008 23.0277C125.204 23.3558 125.301 23.7585 125.301 24.2358C125.301 24.786 125.157 25.2831 124.869 25.7273C124.584 26.1714 124.166 26.5244 123.616 26.7862C123.069 27.0481 122.405 27.179 121.623 27.179C120.893 27.179 120.262 27.0613 119.728 26.826C119.198 26.5907 118.78 26.2625 118.475 25.8416C118.174 25.4207 118.003 24.9318 117.963 24.375H119.236C119.269 24.7595 119.399 25.0777 119.624 25.3295C119.853 25.5781 120.141 25.7637 120.489 25.8864C120.84 26.0057 121.218 26.0653 121.623 26.0653C122.093 26.0653 122.516 25.9891 122.89 25.8366C123.265 25.6809 123.561 25.4654 123.78 25.1903C123.999 24.9119 124.108 24.5871 124.108 24.2159C124.108 23.8778 124.014 23.6027 123.825 23.3906C123.636 23.1785 123.387 23.0062 123.079 22.8736C122.771 22.741 122.438 22.625 122.08 22.5256L120.827 22.1676C120.032 21.9389 119.402 21.6125 118.938 21.1882C118.474 20.764 118.242 20.2088 118.242 19.5227C118.242 18.9527 118.396 18.4555 118.704 18.0312C119.016 17.6037 119.433 17.2723 119.957 17.0369C120.484 16.7983 121.072 16.679 121.722 16.679C122.378 16.679 122.962 16.7966 123.472 17.032C123.982 17.264 124.387 17.5821 124.685 17.9865C124.987 18.3909 125.146 18.8499 125.162 19.3636H123.969ZM130.371 27.1591C129.635 27.1591 129.001 26.9967 128.467 26.6719C127.937 26.3438 127.528 25.8864 127.239 25.2997C126.954 24.7098 126.812 24.0237 126.812 23.2415C126.812 22.4593 126.954 21.7699 127.239 21.1733C127.528 20.5734 127.929 20.1061 128.442 19.7713C128.959 19.4332 129.563 19.2642 130.252 19.2642C130.65 19.2642 131.042 19.3305 131.43 19.4631C131.818 19.5956 132.171 19.8111 132.489 20.1094C132.807 20.4044 133.061 20.7955 133.25 21.2827C133.439 21.7699 133.533 22.3698 133.533 23.0824V23.5795H127.647V22.5653H132.34C132.34 22.1345 132.254 21.75 132.081 21.4119C131.912 21.0739 131.671 20.8071 131.356 20.6115C131.044 20.416 130.676 20.3182 130.252 20.3182C129.785 20.3182 129.38 20.4342 129.039 20.6662C128.701 20.8949 128.441 21.1932 128.258 21.5611C128.076 21.929 127.985 22.3234 127.985 22.7443V23.4205C127.985 23.9972 128.084 24.486 128.283 24.8871C128.485 25.2848 128.765 25.5881 129.123 25.7969C129.481 26.0024 129.897 26.1051 130.371 26.1051C130.68 26.1051 130.958 26.062 131.206 25.9759C131.458 25.8864 131.675 25.7538 131.858 25.5781C132.04 25.3991 132.181 25.1771 132.28 24.9119L133.414 25.2301C133.295 25.6146 133.094 25.9527 132.812 26.2443C132.531 26.5327 132.183 26.758 131.768 26.9205C131.354 27.0795 130.888 27.1591 130.371 27.1591ZM138.639 19.3636V20.358H134.682V19.3636H138.639ZM135.835 17.5341H137.008V24.8125C137.008 25.1439 137.056 25.3925 137.153 25.5582C137.252 25.7206 137.378 25.83 137.53 25.8864C137.686 25.9394 137.85 25.9659 138.023 25.9659C138.152 25.9659 138.258 25.9593 138.341 25.946C138.424 25.9295 138.49 25.9162 138.54 25.9062L138.778 26.9602C138.699 26.9901 138.588 27.0199 138.445 27.0497C138.303 27.0829 138.122 27.0994 137.903 27.0994C137.572 27.0994 137.247 27.0282 136.929 26.8857C136.614 26.7431 136.352 26.526 136.143 26.2344C135.938 25.9427 135.835 25.5748 135.835 25.1307V17.5341ZM143.725 19.3636V20.358H139.768V19.3636H143.725ZM140.921 17.5341H142.094V24.8125C142.094 25.1439 142.142 25.3925 142.238 25.5582C142.338 25.7206 142.464 25.83 142.616 25.8864C142.772 25.9394 142.936 25.9659 143.108 25.9659C143.238 25.9659 143.344 25.9593 143.427 25.946C143.51 25.9295 143.576 25.9162 143.626 25.9062L143.864 26.9602C143.785 26.9901 143.674 27.0199 143.531 27.0497C143.389 27.0829 143.208 27.0994 142.989 27.0994C142.658 27.0994 142.333 27.0282 142.015 26.8857C141.7 26.7431 141.438 26.526 141.229 26.2344C141.024 25.9427 140.921 25.5748 140.921 25.1307V17.5341ZM145.49 27V19.3636H146.663V27H145.49ZM146.086 18.0909C145.858 18.0909 145.661 18.013 145.495 17.8572C145.332 17.7015 145.251 17.5142 145.251 17.2955C145.251 17.0767 145.332 16.8894 145.495 16.7337C145.661 16.5779 145.858 16.5 146.086 16.5C146.315 16.5 146.511 16.5779 146.673 16.7337C146.839 16.8894 146.922 17.0767 146.922 17.2955C146.922 17.5142 146.839 17.7015 146.673 17.8572C146.511 18.013 146.315 18.0909 146.086 18.0909ZM149.985 22.4062V27H148.812V19.3636H149.946V20.5568H150.045C150.224 20.169 150.496 19.8575 150.86 19.6222C151.225 19.3835 151.696 19.2642 152.272 19.2642C152.789 19.2642 153.242 19.3703 153.63 19.5824C154.017 19.7912 154.319 20.1094 154.534 20.5369C154.75 20.9612 154.858 21.4981 154.858 22.1477V27H153.684V22.2273C153.684 21.6274 153.529 21.16 153.217 20.8253C152.905 20.4872 152.478 20.3182 151.934 20.3182C151.56 20.3182 151.225 20.3994 150.93 20.5618C150.638 20.7242 150.408 20.9612 150.239 21.2727C150.07 21.5843 149.985 21.9621 149.985 22.4062ZM160.084 30.0227C159.517 30.0227 159.03 29.9498 158.622 29.804C158.215 29.6615 157.875 29.4725 157.603 29.2372C157.335 29.0052 157.121 28.7566 156.962 28.4915L157.896 27.8352C158.003 27.9744 158.137 28.1335 158.299 28.3125C158.462 28.4948 158.684 28.6522 158.965 28.7848C159.25 28.9207 159.623 28.9886 160.084 28.9886C160.7 28.9886 161.209 28.8395 161.61 28.5412C162.011 28.2429 162.212 27.7756 162.212 27.1392V25.5881H162.112C162.026 25.7273 161.904 25.8996 161.744 26.1051C161.589 26.3073 161.363 26.4879 161.068 26.647C160.777 26.8028 160.382 26.8807 159.885 26.8807C159.269 26.8807 158.715 26.7348 158.225 26.4432C157.737 26.1515 157.351 25.7273 157.066 25.1705C156.785 24.6136 156.644 23.9375 156.644 23.142C156.644 22.3598 156.781 21.6787 157.056 21.0987C157.331 20.5154 157.714 20.0646 158.205 19.7464C158.695 19.425 159.262 19.2642 159.905 19.2642C160.402 19.2642 160.797 19.3471 161.088 19.5128C161.383 19.6752 161.609 19.8608 161.764 20.0696C161.923 20.2751 162.046 20.4441 162.132 20.5767H162.252V19.3636H163.385V27.2188C163.385 27.875 163.236 28.4086 162.938 28.8196C162.643 29.2339 162.245 29.5372 161.744 29.7294C161.247 29.925 160.694 30.0227 160.084 30.0227ZM160.044 25.8267C160.515 25.8267 160.913 25.719 161.237 25.5036C161.562 25.2881 161.809 24.9782 161.978 24.5739C162.147 24.1695 162.232 23.6856 162.232 23.1222C162.232 22.572 162.149 22.0864 161.983 21.6655C161.817 21.2446 161.572 20.9148 161.247 20.6761C160.923 20.4375 160.521 20.3182 160.044 20.3182C159.547 20.3182 159.133 20.4441 158.801 20.696C158.473 20.9479 158.226 21.286 158.061 21.7102C157.898 22.1345 157.817 22.6051 157.817 23.1222C157.817 23.6525 157.9 24.1214 158.066 24.5291C158.235 24.9335 158.483 25.2517 158.811 25.4837C159.143 25.7124 159.554 25.8267 160.044 25.8267ZM170.942 21.0739L169.888 21.3722C169.822 21.1965 169.724 21.0258 169.595 20.8601C169.469 20.6911 169.296 20.5518 169.078 20.4425C168.859 20.3331 168.579 20.2784 168.237 20.2784C167.77 20.2784 167.381 20.3861 167.069 20.6016C166.761 20.8137 166.607 21.0838 166.607 21.4119C166.607 21.7036 166.713 21.9339 166.925 22.103C167.137 22.272 167.468 22.4129 167.919 22.5256L169.053 22.804C169.735 22.9697 170.244 23.2232 170.579 23.5646C170.914 23.9027 171.081 24.3385 171.081 24.8722C171.081 25.3097 170.955 25.7008 170.703 26.0455C170.455 26.3902 170.107 26.6619 169.659 26.8608C169.212 27.0597 168.691 27.1591 168.098 27.1591C167.319 27.1591 166.675 26.9901 166.164 26.652C165.654 26.3139 165.331 25.8201 165.195 25.1705L166.308 24.892C166.414 25.303 166.615 25.6113 166.91 25.8168C167.208 26.0223 167.598 26.125 168.078 26.125C168.625 26.125 169.059 26.009 169.381 25.777C169.706 25.5417 169.868 25.2599 169.868 24.9318C169.868 24.6667 169.775 24.4446 169.59 24.2656C169.404 24.0833 169.119 23.9474 168.735 23.858L167.462 23.5597C166.762 23.3939 166.249 23.1371 165.921 22.7891C165.596 22.4377 165.433 21.9986 165.433 21.4716C165.433 21.0407 165.554 20.6596 165.796 20.3281C166.042 19.9967 166.375 19.7365 166.796 19.5476C167.22 19.3587 167.7 19.2642 168.237 19.2642C168.993 19.2642 169.586 19.4299 170.017 19.7614C170.451 20.0928 170.76 20.5303 170.942 21.0739Z" fill="white"/>
<path fill-rule="evenodd" clip-rule="evenodd" d="M28 22C32.3349 22 35.8645 25.4478 35.9962 29.7508L36 30V31H20V30C20 25.5817 23.5817 22 28 22ZM28 24C25.1444 24 22.7548 25.9948 22.1486 28.667L22.101 28.8977L22.084 29H33.915L33.899 28.8977C33.4095 26.2618 31.1969 24.2312 28.4739 24.0184L28.2249 24.0041L28 24ZM28 13C30.2091 13 32 14.7909 32 17C32 19.2091 30.2091 21 28 21C25.7909 21 24 19.2091 24 17C24 14.7909 25.7909 13 28 13ZM28 15C26.8954 15 26 15.8954 26 17C26 18.1046 26.8954 19 28 19C29.1046 19 30 18.1046 30 17C30 15.8954 29.1046 15 28 15Z" fill="white"/>
</svg>
