<svg width="223" height="44" viewBox="0 0 223 44" fill="none" xmlns="http://www.w3.org/2000/svg">
<path d="M57.233 27V16.8182H60.6733C61.4721 16.8182 62.125 16.9624 62.6321 17.2507C63.1425 17.5357 63.5204 17.9219 63.7656 18.4091C64.0109 18.8963 64.1335 19.4399 64.1335 20.0398C64.1335 20.6397 64.0109 21.1849 63.7656 21.6754C63.5237 22.166 63.1491 22.5571 62.642 22.8487C62.1349 23.1371 61.4853 23.2812 60.6932 23.2812H58.2273V22.1875H60.6534C61.2003 22.1875 61.6394 22.093 61.9709 21.9041C62.3023 21.7152 62.5426 21.46 62.6918 21.1385C62.8442 20.8137 62.9205 20.4474 62.9205 20.0398C62.9205 19.6321 62.8442 19.2675 62.6918 18.946C62.5426 18.6245 62.3007 18.3726 61.9659 18.1903C61.6312 18.0047 61.187 17.9119 60.6335 17.9119H58.4659V27H57.233ZM65.9606 27V19.3636H67.0941V20.517H67.1737C67.3129 20.1392 67.5647 19.8326 67.9293 19.5973C68.2939 19.362 68.7049 19.2443 69.1623 19.2443C69.2485 19.2443 69.3562 19.246 69.4854 19.2493C69.6147 19.2526 69.7125 19.2576 69.7788 19.2642V20.4574C69.739 20.4474 69.6478 20.4325 69.5053 20.4126C69.3661 20.3894 69.2186 20.3778 69.0629 20.3778C68.6916 20.3778 68.3602 20.4557 68.0685 20.6115C67.7802 20.764 67.5515 20.9761 67.3825 21.2479C67.2167 21.5163 67.1339 21.8229 67.1339 22.1676V27H65.9606ZM74.0394 27.1591C73.35 27.1591 72.7451 26.995 72.2248 26.6669C71.7077 26.3388 71.3034 25.8797 71.0117 25.2898C70.7234 24.6998 70.5792 24.0104 70.5792 23.2216C70.5792 22.4261 70.7234 21.7318 71.0117 21.1385C71.3034 20.5452 71.7077 20.0845 72.2248 19.7564C72.7451 19.4283 73.35 19.2642 74.0394 19.2642C74.7288 19.2642 75.332 19.4283 75.8491 19.7564C76.3694 20.0845 76.7738 20.5452 77.0621 21.1385C77.3538 21.7318 77.4996 22.4261 77.4996 23.2216C77.4996 24.0104 77.3538 24.6998 77.0621 25.2898C76.7738 25.8797 76.3694 26.3388 75.8491 26.6669C75.332 26.995 74.7288 27.1591 74.0394 27.1591ZM74.0394 26.1051C74.5631 26.1051 74.994 25.9709 75.332 25.7024C75.6701 25.4339 75.9203 25.081 76.0827 24.6435C76.2451 24.206 76.3263 23.732 76.3263 23.2216C76.3263 22.7112 76.2451 22.2356 76.0827 21.7947C75.9203 21.3539 75.6701 20.9976 75.332 20.7259C74.994 20.4541 74.5631 20.3182 74.0394 20.3182C73.5157 20.3182 73.0849 20.4541 72.7468 20.7259C72.4087 20.9976 72.1585 21.3539 71.9961 21.7947C71.8337 22.2356 71.7525 22.7112 71.7525 23.2216C71.7525 23.732 71.8337 24.206 71.9961 24.6435C72.1585 25.081 72.4087 25.4339 72.7468 25.7024C73.0849 25.9709 73.5157 26.1051 74.0394 26.1051ZM82.1742 27.1591C81.5378 27.1591 80.976 26.9983 80.4888 26.6768C80.0016 26.352 79.6204 25.8946 79.3453 25.3047C79.0703 24.7114 78.9327 24.0104 78.9327 23.2017C78.9327 22.3996 79.0703 21.7036 79.3453 21.1136C79.6204 20.5237 80.0033 20.0679 80.4938 19.7464C80.9843 19.425 81.5511 19.2642 82.1941 19.2642C82.6912 19.2642 83.084 19.3471 83.3723 19.5128C83.664 19.6752 83.8861 19.8608 84.0385 20.0696C84.1943 20.2751 84.3153 20.4441 84.4015 20.5767H84.5009V16.8182H85.6742V27H84.5407V25.8267H84.4015C84.3153 25.9659 84.1926 26.1416 84.0336 26.3537C83.8745 26.5625 83.6474 26.7498 83.3525 26.9155C83.0575 27.0779 82.6647 27.1591 82.1742 27.1591ZM82.3333 26.1051C82.8039 26.1051 83.2016 25.9825 83.5265 25.7372C83.8513 25.4886 84.0982 25.1456 84.2672 24.7081C84.4363 24.2673 84.5208 23.7585 84.5208 23.1818C84.5208 22.6117 84.4379 22.1129 84.2722 21.6854C84.1065 21.2545 83.8612 20.9197 83.5364 20.6811C83.2116 20.4392 82.8105 20.3182 82.3333 20.3182C81.8361 20.3182 81.4218 20.4458 81.0904 20.701C80.7623 20.9529 80.5153 21.2959 80.3496 21.7301C80.1872 22.161 80.106 22.6449 80.106 23.1818C80.106 23.7254 80.1889 24.2192 80.3546 24.6634C80.5236 25.1042 80.7722 25.4555 81.1003 25.7173C81.4318 25.9759 81.8427 26.1051 82.3333 26.1051ZM92.7985 23.8778V19.3636H93.9718V27H92.7985V25.7074H92.7189C92.54 26.0952 92.2615 26.425 91.8837 26.6967C91.5059 26.9652 91.0286 27.0994 90.4519 27.0994C89.9746 27.0994 89.5504 26.995 89.1792 26.7862C88.8079 26.5741 88.5163 26.2559 88.3042 25.8317C88.092 25.4041 87.986 24.8655 87.986 24.2159V19.3636H89.1593V24.1364C89.1593 24.6932 89.315 25.1373 89.6266 25.4688C89.9415 25.8002 90.3425 25.9659 90.8297 25.9659C91.1214 25.9659 91.418 25.8913 91.7196 25.7422C92.0246 25.593 92.2798 25.3643 92.4853 25.0561C92.6941 24.7479 92.7985 24.3551 92.7985 23.8778ZM99.223 27.1591C98.5071 27.1591 97.8906 26.9901 97.3736 26.652C96.8565 26.3139 96.4588 25.8482 96.1804 25.255C95.902 24.6617 95.7628 23.9839 95.7628 23.2216C95.7628 22.446 95.9053 21.7616 96.1903 21.1683C96.4787 20.5717 96.8797 20.1061 97.3935 19.7713C97.9105 19.4332 98.5137 19.2642 99.2031 19.2642C99.7401 19.2642 100.224 19.3636 100.655 19.5625C101.086 19.7614 101.439 20.0398 101.714 20.3977C101.989 20.7557 102.16 21.1733 102.226 21.6506H101.053C100.963 21.3026 100.764 20.9943 100.456 20.7259C100.151 20.4541 99.7401 20.3182 99.223 20.3182C98.7656 20.3182 98.3646 20.4375 98.0199 20.6761C97.6785 20.9115 97.4117 21.2446 97.2195 21.6754C97.0305 22.103 96.9361 22.6051 96.9361 23.1818C96.9361 23.7718 97.0289 24.2855 97.2145 24.723C97.4034 25.1605 97.6686 25.5002 98.0099 25.7422C98.3546 25.9841 98.759 26.1051 99.223 26.1051C99.5279 26.1051 99.8047 26.0521 100.053 25.946C100.302 25.84 100.512 25.6875 100.685 25.4886C100.857 25.2898 100.98 25.0511 101.053 24.7727H102.226C102.16 25.2235 101.996 25.6295 101.734 25.9908C101.475 26.3487 101.132 26.6338 100.705 26.8459C100.28 27.0547 99.7865 27.1591 99.223 27.1591ZM107.262 19.3636V20.358H103.305V19.3636H107.262ZM104.458 17.5341H105.631V24.8125C105.631 25.1439 105.679 25.3925 105.776 25.5582C105.875 25.7206 106.001 25.83 106.153 25.8864C106.309 25.9394 106.473 25.9659 106.646 25.9659C106.775 25.9659 106.881 25.9593 106.964 25.946C107.047 25.9295 107.113 25.9162 107.163 25.9062L107.401 26.9602C107.322 26.9901 107.211 27.0199 107.068 27.0497C106.926 27.0829 106.745 27.0994 106.526 27.0994C106.195 27.0994 105.87 27.0282 105.552 26.8857C105.237 26.7431 104.975 26.526 104.766 26.2344C104.561 25.9427 104.458 25.5748 104.458 25.1307V17.5341ZM114.299 21.0739L113.245 21.3722C113.179 21.1965 113.081 21.0258 112.952 20.8601C112.826 20.6911 112.654 20.5518 112.435 20.4425C112.216 20.3331 111.936 20.2784 111.595 20.2784C111.127 20.2784 110.738 20.3861 110.426 20.6016C110.118 20.8137 109.964 21.0838 109.964 21.4119C109.964 21.7036 110.07 21.9339 110.282 22.103C110.494 22.272 110.826 22.4129 111.277 22.5256L112.41 22.804C113.093 22.9697 113.602 23.2232 113.936 23.5646C114.271 23.9027 114.439 24.3385 114.439 24.8722C114.439 25.3097 114.313 25.7008 114.061 26.0455C113.812 26.3902 113.464 26.6619 113.017 26.8608C112.569 27.0597 112.049 27.1591 111.456 27.1591C110.677 27.1591 110.032 26.9901 109.522 26.652C109.011 26.3139 108.688 25.8201 108.552 25.1705L109.666 24.892C109.772 25.303 109.972 25.6113 110.267 25.8168C110.566 26.0223 110.955 26.125 111.436 26.125C111.983 26.125 112.417 26.009 112.738 25.777C113.063 25.5417 113.225 25.2599 113.225 24.9318C113.225 24.6667 113.133 24.4446 112.947 24.2656C112.761 24.0833 112.476 23.9474 112.092 23.858L110.819 23.5597C110.12 23.3939 109.606 23.1371 109.278 22.7891C108.953 22.4377 108.791 21.9986 108.791 21.4716C108.791 21.0407 108.912 20.6596 109.154 20.3281C109.399 19.9967 109.732 19.7365 110.153 19.5476C110.577 19.3587 111.058 19.2642 111.595 19.2642C112.35 19.2642 112.944 19.4299 113.375 19.7614C113.809 20.0928 114.117 20.5303 114.299 21.0739Z" fill="white"/>
<path fill-rule="evenodd" clip-rule="evenodd" d="M27.5459 13.5703C27.9641 13.152 28.5498 12.9466 29.1377 13.0119L37 13L36.9881 20.8623C37.0534 21.4502 36.848 22.0359 36.4297 22.4541L27.4541 31.4297C26.6937 32.1901 25.4609 32.1901 24.7006 31.4297L18.5703 25.2994C17.8099 24.5391 17.8099 23.3063 18.5703 22.5459L27.5459 13.5703ZM29 15L19.947 23.9227L26.0773 30.053L35 21V15H29ZM30 18L32 20L30 22L28 20L30 18Z" fill="white"/>
</svg>
