<svg width="223" height="44" viewBox="0 0 223 44" fill="none" xmlns="http://www.w3.org/2000/svg">
<path d="M57.233 27V16.8182H60.6733C61.4721 16.8182 62.125 16.9624 62.6321 17.2507C63.1425 17.5357 63.5204 17.9219 63.7656 18.4091C64.0109 18.8963 64.1335 19.4399 64.1335 20.0398C64.1335 20.6397 64.0109 21.1849 63.7656 21.6754C63.5237 22.166 63.1491 22.5571 62.642 22.8487C62.1349 23.1371 61.4853 23.2812 60.6932 23.2812H58.2273V22.1875H60.6534C61.2003 22.1875 61.6394 22.093 61.9709 21.9041C62.3023 21.7152 62.5426 21.46 62.6918 21.1385C62.8442 20.8137 62.9205 20.4474 62.9205 20.0398C62.9205 19.6321 62.8442 19.2675 62.6918 18.946C62.5426 18.6245 62.3007 18.3726 61.9659 18.1903C61.6312 18.0047 61.187 17.9119 60.6335 17.9119H58.4659V27H57.233ZM65.9606 27V19.3636H67.0941V20.517H67.1737C67.3129 20.1392 67.5647 19.8326 67.9293 19.5973C68.2939 19.362 68.7049 19.2443 69.1623 19.2443C69.2485 19.2443 69.3562 19.246 69.4854 19.2493C69.6147 19.2526 69.7125 19.2576 69.7788 19.2642V20.4574C69.739 20.4474 69.6478 20.4325 69.5053 20.4126C69.3661 20.3894 69.2186 20.3778 69.0629 20.3778C68.6916 20.3778 68.3602 20.4557 68.0685 20.6115C67.7802 20.764 67.5515 20.9761 67.3825 21.2479C67.2167 21.5163 67.1339 21.8229 67.1339 22.1676V27H65.9606ZM74.0394 27.1591C73.35 27.1591 72.7451 26.995 72.2248 26.6669C71.7077 26.3388 71.3034 25.8797 71.0117 25.2898C70.7234 24.6998 70.5792 24.0104 70.5792 23.2216C70.5792 22.4261 70.7234 21.7318 71.0117 21.1385C71.3034 20.5452 71.7077 20.0845 72.2248 19.7564C72.7451 19.4283 73.35 19.2642 74.0394 19.2642C74.7288 19.2642 75.332 19.4283 75.8491 19.7564C76.3694 20.0845 76.7738 20.5452 77.0621 21.1385C77.3538 21.7318 77.4996 22.4261 77.4996 23.2216C77.4996 24.0104 77.3538 24.6998 77.0621 25.2898C76.7738 25.8797 76.3694 26.3388 75.8491 26.6669C75.332 26.995 74.7288 27.1591 74.0394 27.1591ZM74.0394 26.1051C74.5631 26.1051 74.994 25.9709 75.332 25.7024C75.6701 25.4339 75.9203 25.081 76.0827 24.6435C76.2451 24.206 76.3263 23.732 76.3263 23.2216C76.3263 22.7112 76.2451 22.2356 76.0827 21.7947C75.9203 21.3539 75.6701 20.9976 75.332 20.7259C74.994 20.4541 74.5631 20.3182 74.0394 20.3182C73.5157 20.3182 73.0849 20.4541 72.7468 20.7259C72.4087 20.9976 72.1585 21.3539 71.9961 21.7947C71.8337 22.2356 71.7525 22.7112 71.7525 23.2216C71.7525 23.732 71.8337 24.206 71.9961 24.6435C72.1585 25.081 72.4087 25.4339 72.7468 25.7024C73.0849 25.9709 73.5157 26.1051 74.0394 26.1051ZM82.1742 27.1591C81.5378 27.1591 80.976 26.9983 80.4888 26.6768C80.0016 26.352 79.6204 25.8946 79.3453 25.3047C79.0703 24.7114 78.9327 24.0104 78.9327 23.2017C78.9327 22.3996 79.0703 21.7036 79.3453 21.1136C79.6204 20.5237 80.0033 20.0679 80.4938 19.7464C80.9843 19.425 81.5511 19.2642 82.1941 19.2642C82.6912 19.2642 83.084 19.3471 83.3723 19.5128C83.664 19.6752 83.8861 19.8608 84.0385 20.0696C84.1943 20.2751 84.3153 20.4441 84.4015 20.5767H84.5009V16.8182H85.6742V27H84.5407V25.8267H84.4015C84.3153 25.9659 84.1926 26.1416 84.0336 26.3537C83.8745 26.5625 83.6474 26.7498 83.3525 26.9155C83.0575 27.0779 82.6647 27.1591 82.1742 27.1591ZM82.3333 26.1051C82.8039 26.1051 83.2016 25.9825 83.5265 25.7372C83.8513 25.4886 84.0982 25.1456 84.2672 24.7081C84.4363 24.2673 84.5208 23.7585 84.5208 23.1818C84.5208 22.6117 84.4379 22.1129 84.2722 21.6854C84.1065 21.2545 83.8612 20.9197 83.5364 20.6811C83.2116 20.4392 82.8105 20.3182 82.3333 20.3182C81.8361 20.3182 81.4218 20.4458 81.0904 20.701C80.7623 20.9529 80.5153 21.2959 80.3496 21.7301C80.1872 22.161 80.106 22.6449 80.106 23.1818C80.106 23.7254 80.1889 24.2192 80.3546 24.6634C80.5236 25.1042 80.7722 25.4555 81.1003 25.7173C81.4318 25.9759 81.8427 26.1051 82.3333 26.1051ZM92.7985 23.8778V19.3636H93.9718V27H92.7985V25.7074H92.7189C92.54 26.0952 92.2615 26.425 91.8837 26.6967C91.5059 26.9652 91.0286 27.0994 90.4519 27.0994C89.9746 27.0994 89.5504 26.995 89.1792 26.7862C88.8079 26.5741 88.5163 26.2559 88.3042 25.8317C88.092 25.4041 87.986 24.8655 87.986 24.2159V19.3636H89.1593V24.1364C89.1593 24.6932 89.315 25.1373 89.6266 25.4688C89.9415 25.8002 90.3425 25.9659 90.8297 25.9659C91.1214 25.9659 91.418 25.8913 91.7196 25.7422C92.0246 25.593 92.2798 25.3643 92.4853 25.0561C92.6941 24.7479 92.7985 24.3551 92.7985 23.8778ZM99.223 27.1591C98.5071 27.1591 97.8906 26.9901 97.3736 26.652C96.8565 26.3139 96.4588 25.8482 96.1804 25.255C95.902 24.6617 95.7628 23.9839 95.7628 23.2216C95.7628 22.446 95.9053 21.7616 96.1903 21.1683C96.4787 20.5717 96.8797 20.1061 97.3935 19.7713C97.9105 19.4332 98.5137 19.2642 99.2031 19.2642C99.7401 19.2642 100.224 19.3636 100.655 19.5625C101.086 19.7614 101.439 20.0398 101.714 20.3977C101.989 20.7557 102.16 21.1733 102.226 21.6506H101.053C100.963 21.3026 100.764 20.9943 100.456 20.7259C100.151 20.4541 99.7401 20.3182 99.223 20.3182C98.7656 20.3182 98.3646 20.4375 98.0199 20.6761C97.6785 20.9115 97.4117 21.2446 97.2195 21.6754C97.0305 22.103 96.9361 22.6051 96.9361 23.1818C96.9361 23.7718 97.0289 24.2855 97.2145 24.723C97.4034 25.1605 97.6686 25.5002 98.0099 25.7422C98.3546 25.9841 98.759 26.1051 99.223 26.1051C99.5279 26.1051 99.8047 26.0521 100.053 25.946C100.302 25.84 100.512 25.6875 100.685 25.4886C100.857 25.2898 100.98 25.0511 101.053 24.7727H102.226C102.16 25.2235 101.996 25.6295 101.734 25.9908C101.475 26.3487 101.132 26.6338 100.705 26.8459C100.28 27.0547 99.7865 27.1591 99.223 27.1591ZM107.262 19.3636V20.358H103.305V19.3636H107.262ZM104.458 17.5341H105.631V24.8125C105.631 25.1439 105.679 25.3925 105.776 25.5582C105.875 25.7206 106.001 25.83 106.153 25.8864C106.309 25.9394 106.473 25.9659 106.646 25.9659C106.775 25.9659 106.881 25.9593 106.964 25.946C107.047 25.9295 107.113 25.9162 107.163 25.9062L107.401 26.9602C107.322 26.9901 107.211 27.0199 107.068 27.0497C106.926 27.0829 106.745 27.0994 106.526 27.0994C106.195 27.0994 105.87 27.0282 105.552 26.8857C105.237 26.7431 104.975 26.526 104.766 26.2344C104.561 25.9427 104.458 25.5748 104.458 25.1307V17.5341ZM119.805 16.8182H121.038V23.5597C121.038 24.2557 120.874 24.8771 120.546 25.424C120.221 25.9676 119.762 26.3968 119.169 26.7116C118.576 27.0232 117.88 27.179 117.081 27.179C116.282 27.179 115.586 27.0232 114.993 26.7116C114.4 26.3968 113.939 25.9676 113.611 25.424C113.286 24.8771 113.124 24.2557 113.124 23.5597V16.8182H114.357V23.4602C114.357 23.9574 114.466 24.3999 114.685 24.7876C114.903 25.1721 115.215 25.4754 115.619 25.6974C116.027 25.9162 116.514 26.0256 117.081 26.0256C117.648 26.0256 118.135 25.9162 118.543 25.6974C118.95 25.4754 119.262 25.1721 119.477 24.7876C119.696 24.3999 119.805 23.9574 119.805 23.4602V16.8182ZM123.341 29.8636V19.3636H124.475V20.5767H124.614C124.7 20.4441 124.82 20.2751 124.972 20.0696C125.128 19.8608 125.35 19.6752 125.638 19.5128C125.93 19.3471 126.324 19.2642 126.822 19.2642C127.465 19.2642 128.031 19.425 128.522 19.7464C129.012 20.0679 129.395 20.5237 129.67 21.1136C129.945 21.7036 130.083 22.3996 130.083 23.2017C130.083 24.0104 129.945 24.7114 129.67 25.3047C129.395 25.8946 129.014 26.352 128.527 26.6768C128.04 26.9983 127.478 27.1591 126.841 27.1591C126.351 27.1591 125.958 27.0779 125.663 26.9155C125.368 26.7498 125.141 26.5625 124.982 26.3537C124.823 26.1416 124.7 25.9659 124.614 25.8267H124.515V29.8636H123.341ZM124.495 23.1818C124.495 23.7585 124.579 24.2673 124.748 24.7081C124.917 25.1456 125.164 25.4886 125.489 25.7372C125.814 25.9825 126.212 26.1051 126.682 26.1051C127.173 26.1051 127.582 25.9759 127.91 25.7173C128.242 25.4555 128.49 25.1042 128.656 24.6634C128.825 24.2192 128.91 23.7254 128.91 23.1818C128.91 22.6449 128.827 22.161 128.661 21.7301C128.499 21.2959 128.252 20.9529 127.92 20.701C127.592 20.4458 127.18 20.3182 126.682 20.3182C126.205 20.3182 125.804 20.4392 125.479 20.6811C125.154 20.9197 124.909 21.2545 124.743 21.6854C124.578 22.1129 124.495 22.6117 124.495 23.1818ZM134.756 27.1591C134.12 27.1591 133.558 26.9983 133.071 26.6768C132.584 26.352 132.202 25.8946 131.927 25.3047C131.652 24.7114 131.515 24.0104 131.515 23.2017C131.515 22.3996 131.652 21.7036 131.927 21.1136C132.202 20.5237 132.585 20.0679 133.076 19.7464C133.566 19.425 134.133 19.2642 134.776 19.2642C135.273 19.2642 135.666 19.3471 135.954 19.5128C136.246 19.6752 136.468 19.8608 136.621 20.0696C136.776 20.2751 136.897 20.4441 136.983 20.5767H137.083V16.8182H138.256V27H137.123V25.8267H136.983C136.897 25.9659 136.775 26.1416 136.616 26.3537C136.456 26.5625 136.229 26.7498 135.934 26.9155C135.64 27.0779 135.247 27.1591 134.756 27.1591ZM134.915 26.1051C135.386 26.1051 135.784 25.9825 136.108 25.7372C136.433 25.4886 136.68 25.1456 136.849 24.7081C137.018 24.2673 137.103 23.7585 137.103 23.1818C137.103 22.6117 137.02 22.1129 136.854 21.6854C136.689 21.2545 136.443 20.9197 136.118 20.6811C135.794 20.4392 135.393 20.3182 134.915 20.3182C134.418 20.3182 134.004 20.4458 133.672 20.701C133.344 20.9529 133.097 21.2959 132.932 21.7301C132.769 22.161 132.688 22.6449 132.688 23.1818C132.688 23.7254 132.771 24.2192 132.937 24.6634C133.106 25.1042 133.354 25.4555 133.682 25.7173C134.014 25.9759 134.425 26.1051 134.915 26.1051ZM142.815 27.179C142.331 27.179 141.892 27.0878 141.498 26.9055C141.103 26.7199 140.79 26.4531 140.558 26.1051C140.326 25.7538 140.21 25.3295 140.21 24.8324C140.21 24.3949 140.296 24.0402 140.469 23.7685C140.641 23.4934 140.871 23.2779 141.16 23.1222C141.448 22.9664 141.766 22.8504 142.114 22.7741C142.465 22.6946 142.818 22.6316 143.173 22.5852C143.637 22.5256 144.013 22.4808 144.302 22.451C144.593 22.4179 144.805 22.3632 144.938 22.2869C145.074 22.2107 145.142 22.0781 145.142 21.8892V21.8494C145.142 21.3589 145.008 20.9777 144.739 20.706C144.474 20.4342 144.071 20.2983 143.531 20.2983C142.971 20.2983 142.532 20.4209 142.214 20.6662C141.895 20.9115 141.672 21.1733 141.542 21.4517L140.429 21.054C140.628 20.59 140.893 20.2287 141.224 19.9702C141.559 19.7083 141.924 19.526 142.318 19.4233C142.716 19.3172 143.107 19.2642 143.491 19.2642C143.737 19.2642 144.018 19.294 144.336 19.3537C144.658 19.41 144.968 19.5277 145.266 19.7067C145.568 19.8857 145.818 20.1558 146.017 20.517C146.216 20.8783 146.315 21.3622 146.315 21.9688V27H145.142V25.9659H145.082C145.003 26.1316 144.87 26.3089 144.684 26.4979C144.499 26.6868 144.252 26.8475 143.944 26.9801C143.635 27.1127 143.259 27.179 142.815 27.179ZM142.994 26.125C143.458 26.125 143.849 26.0339 144.167 25.8516C144.489 25.6693 144.731 25.4339 144.893 25.1456C145.059 24.8572 145.142 24.554 145.142 24.2358V23.1619C145.092 23.2216 144.983 23.2763 144.814 23.326C144.648 23.3724 144.456 23.4138 144.237 23.4503C144.022 23.4834 143.811 23.5133 143.606 23.5398C143.403 23.563 143.239 23.5829 143.113 23.5994C142.809 23.6392 142.523 23.7038 142.258 23.7933C141.997 23.8795 141.784 24.0104 141.622 24.1861C141.463 24.3584 141.383 24.5937 141.383 24.892C141.383 25.2997 141.534 25.608 141.836 25.8168C142.141 26.0223 142.527 26.125 142.994 26.125ZM151.778 19.3636V20.358H147.82V19.3636H151.778ZM148.974 17.5341H150.147V24.8125C150.147 25.1439 150.195 25.3925 150.291 25.5582C150.391 25.7206 150.517 25.83 150.669 25.8864C150.825 25.9394 150.989 25.9659 151.161 25.9659C151.29 25.9659 151.397 25.9593 151.479 25.946C151.562 25.9295 151.629 25.9162 151.678 25.9062L151.917 26.9602C151.837 26.9901 151.726 27.0199 151.584 27.0497C151.441 27.0829 151.261 27.0994 151.042 27.0994C150.71 27.0994 150.386 27.0282 150.067 26.8857C149.753 26.7431 149.491 26.526 149.282 26.2344C149.076 25.9427 148.974 25.5748 148.974 25.1307V17.5341ZM156.662 27.1591C155.926 27.1591 155.292 26.9967 154.758 26.6719C154.228 26.3438 153.819 25.8864 153.53 25.2997C153.245 24.7098 153.103 24.0237 153.103 23.2415C153.103 22.4593 153.245 21.7699 153.53 21.1733C153.819 20.5734 154.22 20.1061 154.733 19.7713C155.25 19.4332 155.854 19.2642 156.543 19.2642C156.941 19.2642 157.333 19.3305 157.721 19.4631C158.109 19.5956 158.462 19.8111 158.78 20.1094C159.098 20.4044 159.352 20.7955 159.541 21.2827C159.73 21.7699 159.824 22.3698 159.824 23.0824V23.5795H153.938V22.5653H158.631C158.631 22.1345 158.545 21.75 158.373 21.4119C158.203 21.0739 157.962 20.8071 157.647 20.6115C157.335 20.416 156.967 20.3182 156.543 20.3182C156.076 20.3182 155.671 20.4342 155.33 20.6662C154.992 20.8949 154.732 21.1932 154.549 21.5611C154.367 21.929 154.276 22.3234 154.276 22.7443V23.4205C154.276 23.9972 154.375 24.486 154.574 24.8871C154.776 25.2848 155.056 25.5881 155.414 25.7969C155.772 26.0024 156.188 26.1051 156.662 26.1051C156.971 26.1051 157.249 26.062 157.498 25.9759C157.749 25.8864 157.967 25.7538 158.149 25.5781C158.331 25.3991 158.472 25.1771 158.571 24.9119L159.705 25.2301C159.586 25.6146 159.385 25.9527 159.103 26.2443C158.822 26.5327 158.474 26.758 158.059 26.9205C157.645 27.0795 157.179 27.1591 156.662 27.1591ZM167.018 21.0739L165.964 21.3722C165.898 21.1965 165.8 21.0258 165.671 20.8601C165.545 20.6911 165.373 20.5518 165.154 20.4425C164.935 20.3331 164.655 20.2784 164.314 20.2784C163.846 20.2784 163.457 20.3861 163.145 20.6016C162.837 20.8137 162.683 21.0838 162.683 21.4119C162.683 21.7036 162.789 21.9339 163.001 22.103C163.213 22.272 163.545 22.4129 163.995 22.5256L165.129 22.804C165.812 22.9697 166.32 23.2232 166.655 23.5646C166.99 23.9027 167.157 24.3385 167.157 24.8722C167.157 25.3097 167.031 25.7008 166.779 26.0455C166.531 26.3902 166.183 26.6619 165.735 26.8608C165.288 27.0597 164.768 27.1591 164.174 27.1591C163.395 27.1591 162.751 26.9901 162.24 26.652C161.73 26.3139 161.407 25.8201 161.271 25.1705L162.385 24.892C162.491 25.303 162.691 25.6113 162.986 25.8168C163.284 26.0223 163.674 26.125 164.154 26.125C164.701 26.125 165.136 26.009 165.457 25.777C165.782 25.5417 165.944 25.2599 165.944 24.9318C165.944 24.6667 165.851 24.4446 165.666 24.2656C165.48 24.0833 165.195 23.9474 164.811 23.858L163.538 23.5597C162.839 23.3939 162.325 23.1371 161.997 22.7891C161.672 22.4377 161.51 21.9986 161.51 21.4716C161.51 21.0407 161.631 20.6596 161.873 20.3281C162.118 19.9967 162.451 19.7365 162.872 19.5476C163.296 19.3587 163.777 19.2642 164.314 19.2642C165.069 19.2642 165.663 19.4299 166.093 19.7614C166.528 20.0928 166.836 20.5303 167.018 21.0739Z" fill="white"/>
<path fill-rule="evenodd" clip-rule="evenodd" d="M28 12C31.866 12 35 15.134 35 19C35 21.3782 33.8141 23.4793 32.0013 24.7444L32 32L28 29L24 32L23.9997 24.7451C22.1864 23.4801 21 21.3786 21 19C21 15.134 24.134 12 28 12ZM30 26H26V28L28 27L30 28V26ZM28 14C25.2386 14 23 16.2386 23 19C23 21.7614 25.2386 24 28 24C30.7614 24 33 21.7614 33 19C33 16.2386 30.7614 14 28 14Z" fill="white"/>
</svg>
