<svg width="223" height="44" viewBox="0 0 223 44" fill="none" xmlns="http://www.w3.org/2000/svg">
<path d="M57.233 27V16.8182H60.6733C61.4688 16.8182 62.1217 16.9541 62.6321 17.2259C63.1425 17.4943 63.5204 17.8639 63.7656 18.3345C64.0109 18.8052 64.1335 19.3404 64.1335 19.9403C64.1335 20.5402 64.0109 21.0722 63.7656 21.5362C63.5204 22.0002 63.1442 22.3648 62.6371 22.63C62.13 22.8918 61.482 23.0227 60.6932 23.0227H57.9091V21.9091H60.6534C61.197 21.9091 61.6345 21.8295 61.9659 21.6705C62.3007 21.5114 62.5426 21.286 62.6918 20.9943C62.8442 20.6993 62.9205 20.348 62.9205 19.9403C62.9205 19.5327 62.8442 19.1764 62.6918 18.8714C62.5393 18.5665 62.2957 18.3312 61.9609 18.1655C61.6262 17.9964 61.1837 17.9119 60.6335 17.9119H58.4659V27H57.233ZM62.0256 22.4261L64.5312 27H63.0994L60.6335 22.4261H62.0256ZM69.1486 27.1591C68.4128 27.1591 67.7781 26.9967 67.2445 26.6719C66.7142 26.3438 66.3049 25.8864 66.0165 25.2997C65.7315 24.7098 65.589 24.0237 65.589 23.2415C65.589 22.4593 65.7315 21.7699 66.0165 21.1733C66.3049 20.5734 66.7059 20.1061 67.2196 19.7713C67.7367 19.4332 68.3399 19.2642 69.0293 19.2642C69.427 19.2642 69.8198 19.3305 70.2076 19.4631C70.5953 19.5956 70.9483 19.8111 71.2665 20.1094C71.5847 20.4044 71.8382 20.7955 72.0272 21.2827C72.2161 21.7699 72.3105 22.3698 72.3105 23.0824V23.5795H66.4242V22.5653H71.1174C71.1174 22.1345 71.0312 21.75 70.8588 21.4119C70.6898 21.0739 70.4479 20.8071 70.133 20.6115C69.8214 20.416 69.4535 20.3182 69.0293 20.3182C68.562 20.3182 68.1576 20.4342 67.8162 20.6662C67.4782 20.8949 67.218 21.1932 67.0357 21.5611C66.8534 21.929 66.7623 22.3234 66.7623 22.7443V23.4205C66.7623 23.9972 66.8617 24.486 67.0605 24.8871C67.2627 25.2848 67.5428 25.5881 67.9007 25.7969C68.2587 26.0024 68.6747 26.1051 69.1486 26.1051C69.4569 26.1051 69.7353 26.062 69.9838 25.9759C70.2357 25.8864 70.4528 25.7538 70.6351 25.5781C70.8174 25.3991 70.9583 25.1771 71.0577 24.9119L72.1912 25.2301C72.0719 25.6146 71.8714 25.9527 71.5897 26.2443C71.3079 26.5327 70.9599 26.758 70.5456 26.9205C70.1313 27.0795 69.6657 27.1591 69.1486 27.1591ZM74.0953 29.8636V19.3636H75.2289V20.5767H75.3681C75.4542 20.4441 75.5736 20.2751 75.726 20.0696C75.8818 19.8608 76.1039 19.6752 76.3922 19.5128C76.6839 19.3471 77.0783 19.2642 77.5755 19.2642C78.2185 19.2642 78.7852 19.425 79.2757 19.7464C79.7663 20.0679 80.1491 20.5237 80.4242 21.1136C80.6993 21.7036 80.8368 22.3996 80.8368 23.2017C80.8368 24.0104 80.6993 24.7114 80.4242 25.3047C80.1491 25.8946 79.7679 26.352 79.2807 26.6768C78.7935 26.9983 78.2317 27.1591 77.5953 27.1591C77.1048 27.1591 76.7121 27.0779 76.4171 26.9155C76.1221 26.7498 75.8951 26.5625 75.736 26.3537C75.5769 26.1416 75.4542 25.9659 75.3681 25.8267H75.2686V29.8636H74.0953ZM75.2488 23.1818C75.2488 23.7585 75.3333 24.2673 75.5023 24.7081C75.6713 25.1456 75.9183 25.4886 76.2431 25.7372C76.5679 25.9825 76.9656 26.1051 77.4363 26.1051C77.9268 26.1051 78.3361 25.9759 78.6642 25.7173C78.9957 25.4555 79.2443 25.1042 79.41 24.6634C79.579 24.2192 79.6635 23.7254 79.6635 23.1818C79.6635 22.6449 79.5807 22.161 79.415 21.7301C79.2525 21.2959 79.0056 20.9529 78.6742 20.701C78.3461 20.4458 77.9334 20.3182 77.4363 20.3182C76.959 20.3182 76.5579 20.4392 76.2331 20.6811C75.9083 20.9197 75.6631 21.2545 75.4973 21.6854C75.3316 22.1129 75.2488 22.6117 75.2488 23.1818ZM85.7289 27.1591C85.0395 27.1591 84.4346 26.995 83.9142 26.6669C83.3972 26.3388 82.9928 25.8797 82.7012 25.2898C82.4128 24.6998 82.2686 24.0104 82.2686 23.2216C82.2686 22.4261 82.4128 21.7318 82.7012 21.1385C82.9928 20.5452 83.3972 20.0845 83.9142 19.7564C84.4346 19.4283 85.0395 19.2642 85.7289 19.2642C86.4183 19.2642 87.0215 19.4283 87.5385 19.7564C88.0589 20.0845 88.4632 20.5452 88.7516 21.1385C89.0433 21.7318 89.1891 22.4261 89.1891 23.2216C89.1891 24.0104 89.0433 24.6998 88.7516 25.2898C88.4632 25.8797 88.0589 26.3388 87.5385 26.6669C87.0215 26.995 86.4183 27.1591 85.7289 27.1591ZM85.7289 26.1051C86.2525 26.1051 86.6834 25.9709 87.0215 25.7024C87.3596 25.4339 87.6098 25.081 87.7722 24.6435C87.9346 24.206 88.0158 23.732 88.0158 23.2216C88.0158 22.7112 87.9346 22.2356 87.7722 21.7947C87.6098 21.3539 87.3596 20.9976 87.0215 20.7259C86.6834 20.4541 86.2525 20.3182 85.7289 20.3182C85.2052 20.3182 84.7743 20.4541 84.4363 20.7259C84.0982 20.9976 83.848 21.3539 83.6855 21.7947C83.5231 22.2356 83.4419 22.7112 83.4419 23.2216C83.4419 23.732 83.5231 24.206 83.6855 24.6435C83.848 25.081 84.0982 25.4339 84.4363 25.7024C84.7743 25.9709 85.2052 26.1051 85.7289 26.1051ZM90.9801 27V19.3636H92.1136V20.517H92.1932C92.3324 20.1392 92.5843 19.8326 92.9489 19.5973C93.3134 19.362 93.7244 19.2443 94.1818 19.2443C94.268 19.2443 94.3757 19.246 94.505 19.2493C94.6342 19.2526 94.732 19.2576 94.7983 19.2642V20.4574C94.7585 20.4474 94.6674 20.4325 94.5249 20.4126C94.3857 20.3894 94.2382 20.3778 94.0824 20.3778C93.7112 20.3778 93.3797 20.4557 93.0881 20.6115C92.7997 20.764 92.571 20.9761 92.402 21.2479C92.2363 21.5163 92.1534 21.8229 92.1534 22.1676V27H90.9801ZM99.9886 19.3636V20.358H96.0312V19.3636H99.9886ZM97.1847 17.5341H98.358V24.8125C98.358 25.1439 98.406 25.3925 98.5021 25.5582C98.6016 25.7206 98.7275 25.83 98.88 25.8864C99.0357 25.9394 99.1998 25.9659 99.3722 25.9659C99.5014 25.9659 99.6075 25.9593 99.6903 25.946C99.7732 25.9295 99.8395 25.9162 99.8892 25.9062L100.128 26.9602C100.048 26.9901 99.9373 27.0199 99.7947 27.0497C99.6522 27.0829 99.4716 27.0994 99.2528 27.0994C98.9214 27.0994 98.5966 27.0282 98.2784 26.8857C97.9635 26.7431 97.7017 26.526 97.4929 26.2344C97.2874 25.9427 97.1847 25.5748 97.1847 25.1307V17.5341ZM107.026 21.0739L105.972 21.3722C105.906 21.1965 105.808 21.0258 105.679 20.8601C105.553 20.6911 105.38 20.5518 105.162 20.4425C104.943 20.3331 104.663 20.2784 104.321 20.2784C103.854 20.2784 103.465 20.3861 103.153 20.6016C102.845 20.8137 102.691 21.0838 102.691 21.4119C102.691 21.7036 102.797 21.9339 103.009 22.103C103.221 22.272 103.552 22.4129 104.003 22.5256L105.137 22.804C105.819 22.9697 106.328 23.2232 106.663 23.5646C106.998 23.9027 107.165 24.3385 107.165 24.8722C107.165 25.3097 107.039 25.7008 106.787 26.0455C106.539 26.3902 106.191 26.6619 105.743 26.8608C105.296 27.0597 104.775 27.1591 104.182 27.1591C103.403 27.1591 102.759 26.9901 102.248 26.652C101.738 26.3139 101.415 25.8201 101.279 25.1705L102.392 24.892C102.498 25.303 102.699 25.6113 102.994 25.8168C103.292 26.0223 103.682 26.125 104.162 26.125C104.709 26.125 105.143 26.009 105.465 25.777C105.79 25.5417 105.952 25.2599 105.952 24.9318C105.952 24.6667 105.859 24.4446 105.674 24.2656C105.488 24.0833 105.203 23.9474 104.819 23.858L103.546 23.5597C102.846 23.3939 102.333 23.1371 102.005 22.7891C101.68 22.4377 101.517 21.9986 101.517 21.4716C101.517 21.0407 101.638 20.6596 101.88 20.3281C102.126 19.9967 102.459 19.7365 102.88 19.5476C103.304 19.3587 103.784 19.2642 104.321 19.2642C105.077 19.2642 105.67 19.4299 106.101 19.7614C106.535 20.0928 106.844 20.5303 107.026 21.0739Z" fill="white"/>
<path fill-rule="evenodd" clip-rule="evenodd" d="M34.7857 29C35.4563 29 36 29.4477 36 30C36 30.5523 35.4563 31 34.7857 31H20.2143C19.5437 31 19 30.5523 19 30C19 29.4477 19.5437 29 20.2143 29H34.7857ZM34 13C35.1046 13 36 13.8954 36 15V27H19V23C19 21.8954 19.8954 21 21 21H24V19C24 17.8954 24.8954 17 26 17H29V15C29 13.8954 29.8954 13 31 13H34ZM24 23H21V25H24V23ZM29 19H26V25H29V19ZM34 15H31V25H34V15Z" fill="white"/>
</svg>
